<svg width="874" height="768" viewBox="0 0 874 768" fill="none" xmlns="http://www.w3.org/2000/svg">
<g opacity="0.1" clip-path="url(#clip0_1_2)">
<rect width="874" height="768" fill="url(#paint0_linear_1_2)"/>
<path d="M0 283.575C63.3333 237.408 184.8 186.175 164 350.575C143.2 514.975 200 516.075 231 496.075C272.167 458.741 363.4 412.075 399 524.075C434.6 636.075 385.167 690.075 356 703.075C311.861 724.929 268.267 764.295 390.397 770.075H462C433.487 771.064 409.841 770.995 390.397 770.075H0V283.575Z" fill="url(#paint1_linear_1_2)"/>
<circle cx="221" cy="419" r="43" fill="url(#paint2_linear_1_2)"/>
<circle cx="574" cy="617" r="91" fill="url(#paint3_linear_1_2)"/>
<circle cx="189.463" cy="65.6276" r="11.7977" fill="url(#paint4_linear_1_2)"/>
<path d="M201.092 106.694C201.092 107.356 201.083 108.016 201.066 108.674C169.077 139.396 128.865 154.68 101.055 160.047C118.913 160.047 164.995 149.149 197.721 128.485C188.498 157.426 161.396 178.387 129.399 178.387C89.8035 178.387 57.7051 146.289 57.7051 106.694C57.7051 67.0983 89.8035 35 129.399 35C158.945 35 184.316 52.8726 195.292 78.3963C161.88 124.051 109.817 145.193 76.0453 151.711C100.088 151.711 175.286 131.957 200.178 95.2146C200.78 98.9522 201.092 102.786 201.092 106.694Z" fill="url(#paint5_linear_1_2)"/>
<path d="M145.336 102.156C145.336 103.629 146.53 104.823 148.003 104.823C149.476 104.823 150.669 103.629 150.669 102.156C150.669 100.683 149.476 99.4893 148.003 99.4893C146.53 99.4893 145.336 100.683 145.336 102.156ZM181.637 143.902C181.637 145.374 182.831 146.568 184.303 146.568C185.776 146.568 186.97 145.374 186.97 143.902C186.97 142.429 185.776 141.235 184.303 141.235C182.831 141.235 181.637 142.429 181.637 143.902ZM148.153 102.633C154.444 100.646 163.526 102.356 172.77 106.105C181.988 109.843 191.249 115.559 197.845 121.429C201.144 124.364 203.757 127.321 205.368 130.069C206.986 132.828 207.548 135.294 206.908 137.304C206.274 139.292 204.404 141.003 200.75 142.129C197.096 143.255 191.744 143.764 184.328 143.402L184.279 144.401C191.746 144.765 197.23 144.26 201.044 143.085C204.858 141.91 207.086 140.034 207.86 137.607C208.628 135.201 207.908 132.423 206.231 129.563C204.547 126.692 201.852 123.656 198.509 120.681C191.822 114.73 182.461 108.956 173.146 105.178C163.857 101.411 154.493 99.582 147.852 101.679L148.153 102.633Z" fill="white" fill-opacity="0.2"/>
<circle cx="328.464" cy="43.4645" r="28.158" transform="rotate(-120 328.464 43.4645)" fill="url(#paint6_linear_1_2)"/>
<path d="M220.15 409.957L223.457 412.35L225.85 409.043L222.543 406.65L220.15 409.957ZM516.333 551.5C516.333 552.973 517.527 554.167 519 554.167C520.473 554.167 521.667 552.973 521.667 551.5C521.667 550.027 520.473 548.833 519 548.833C517.527 548.833 516.333 550.027 516.333 551.5ZM223.079 409.994C274.907 401.688 406.731 418.357 518.617 551.821L519.383 551.179C407.269 417.443 275.093 400.645 222.921 409.006L223.079 409.994Z" fill="white" fill-opacity="0.7"/>
<path d="M337.333 40C337.333 41.4727 338.527 42.6667 340 42.6667C341.473 42.6667 342.667 41.4727 342.667 40C342.667 38.5272 341.473 37.3333 340 37.3333C338.527 37.3333 337.333 38.5272 337.333 40ZM586.833 82.5C586.833 83.9727 588.027 85.1667 589.5 85.1667C590.973 85.1667 592.167 83.9727 592.167 82.5C592.167 81.0272 590.973 79.8333 589.5 79.8333C588.027 79.8333 586.833 81.0272 586.833 82.5ZM340.016 40.4997C374.831 39.417 429.08 40.2419 478.665 46.2339C503.458 49.23 527.07 53.5161 546.497 59.4951C565.945 65.4806 581.113 73.1374 589.115 82.8185L589.885 82.1814C581.687 72.2626 566.276 64.5361 546.791 58.5393C527.284 52.5359 503.608 48.2408 478.785 45.2411C429.137 39.2414 374.835 38.4163 339.984 39.5002L340.016 40.4997Z" fill="white" fill-opacity="0.7"/>
<circle cx="631" cy="105" r="70" fill="url(#paint7_linear_1_2)"/>
<circle cx="792.305" cy="178.305" r="147.716" transform="rotate(-113.455 792.305 178.305)" fill="url(#paint8_linear_1_2)"/>
<path d="M589.333 628.5C589.333 629.973 590.527 631.167 592 631.167C593.473 631.167 594.667 629.973 594.667 628.5C594.667 627.027 593.473 625.833 592 625.833C590.527 625.833 589.333 627.027 589.333 628.5ZM801.333 181C801.333 182.473 802.527 183.667 804 183.667C805.473 183.667 806.667 182.473 806.667 181C806.667 179.527 805.473 178.333 804 178.333C802.527 178.333 801.333 179.527 801.333 181ZM592.276 628.917C649.731 590.808 729.288 522.688 781.233 442.159C833.177 361.63 857.57 268.577 804.428 180.741L803.572 181.259C856.43 268.623 832.24 361.237 780.392 441.616C728.545 521.996 649.103 590.025 591.724 628.083L592.276 628.917Z" fill="white" fill-opacity="0.7"/>
<path d="M584.833 109C584.833 110.473 586.027 111.667 587.5 111.667C588.973 111.667 590.167 110.473 590.167 109C590.167 107.527 588.973 106.333 587.5 106.333C586.027 106.333 584.833 107.527 584.833 109ZM660.833 214C660.833 215.473 662.027 216.667 663.5 216.667C664.973 216.667 666.167 215.473 666.167 214C666.167 212.527 664.973 211.333 663.5 211.333C662.027 211.333 660.833 212.527 660.833 214ZM587.437 108.504C572.415 110.423 556.812 113.852 545.063 118.957C539.19 121.509 534.248 124.493 530.825 127.943C527.394 131.399 525.466 135.35 525.701 139.801C525.934 144.238 528.311 149.07 533.27 154.314C538.23 159.56 545.81 165.258 556.538 171.43C577.996 183.776 612.135 198.072 663.348 214.476L663.653 213.524C612.465 197.128 578.404 182.857 557.037 170.563C546.353 164.416 538.864 158.776 533.996 153.627C529.126 148.477 526.916 143.858 526.699 139.749C526.484 135.654 528.243 131.964 531.535 128.647C534.833 125.323 539.647 122.4 545.462 119.874C557.088 114.823 572.585 111.41 587.563 109.496L587.437 108.504Z" fill="white" fill-opacity="0.7"/>
</g>
<defs>
<linearGradient id="paint0_linear_1_2" x1="374.5" y1="325" x2="849.5" y2="768" gradientUnits="userSpaceOnUse">
<stop/>
<stop offset="1" stop-color="#BB20BE" stop-opacity="0"/>
</linearGradient>
<linearGradient id="paint1_linear_1_2" x1="312.5" y1="328.5" x2="34.5" y2="746" gradientUnits="userSpaceOnUse">
<stop stop-color="#A80AE1"/>
<stop offset="1" stop-color="#126CCD"/>
</linearGradient>
<linearGradient id="paint2_linear_1_2" x1="196.619" y1="386.639" x2="256.021" y2="441.608" gradientUnits="userSpaceOnUse">
<stop stop-color="#B809A6"/>
<stop offset="1" stop-color="#372494"/>
</linearGradient>
<linearGradient id="paint3_linear_1_2" x1="495" y1="617" x2="647" y2="617" gradientUnits="userSpaceOnUse">
<stop stop-color="#9D12E0"/>
<stop offset="1" stop-color="#136DCE"/>
</linearGradient>
<linearGradient id="paint4_linear_1_2" x1="179.934" y1="59.7287" x2="198.538" y2="72.4339" gradientUnits="userSpaceOnUse">
<stop stop-color="white"/>
<stop offset="1"/>
</linearGradient>
<linearGradient id="paint5_linear_1_2" x1="74.6017" y1="109.996" x2="128.51" y2="159.881" gradientUnits="userSpaceOnUse">
<stop stop-color="#B809A6"/>
<stop offset="0.493871" stop-color="#561564"/>
<stop offset="0.879055" stop-color="#0F063C"/>
</linearGradient>
<linearGradient id="paint6_linear_1_2" x1="312.499" y1="22.2735" x2="351.397" y2="58.2692" gradientUnits="userSpaceOnUse">
<stop stop-color="#3EE0B9"/>
<stop offset="1" stop-color="#372494"/>
</linearGradient>
<linearGradient id="paint7_linear_1_2" x1="591.309" y1="52.3196" x2="688.01" y2="141.804" gradientUnits="userSpaceOnUse">
<stop stop-color="#3EE0B9"/>
<stop offset="1" stop-color="#372494"/>
</linearGradient>
<linearGradient id="paint8_linear_1_2" x1="664.068" y1="178.305" x2="910.803" y2="178.305" gradientUnits="userSpaceOnUse">
<stop stop-color="#9D12E0"/>
<stop offset="1" stop-color="#136DCE"/>
</linearGradient>
<clipPath id="clip0_1_2">
<rect width="874" height="768" fill="white"/>
</clipPath>
</defs>
</svg>
