<svg width="151" height="144" viewBox="0 0 151 144" fill="none" xmlns="http://www.w3.org/2000/svg">
<circle cx="131.757" cy="30.6276" r="11.7977" fill="url(#paint0_linear_16_24)"/>
<path d="M143.387 71.6936C143.387 72.356 143.378 73.0162 143.36 73.6742C111.372 104.396 71.1594 119.68 43.3496 125.047C61.2078 125.047 107.29 114.149 140.016 93.485C130.793 122.426 103.691 143.387 71.6936 143.387C32.0983 143.387 0 111.289 0 71.6936C0 32.0983 32.0983 0 71.6936 0C101.24 0 126.611 17.8726 137.587 43.3963C104.174 89.0511 52.1118 110.193 18.3402 116.711C42.3827 116.711 117.581 96.9574 142.473 60.2146C143.075 63.9522 143.387 67.7864 143.387 71.6936Z" fill="url(#paint1_linear_16_24)"/>
<path d="M87.6311 67.156C87.6311 68.6288 88.825 69.8227 90.2977 69.8227C91.7705 69.8227 92.9644 68.6288 92.9644 67.156C92.9644 65.6833 91.7705 64.4893 90.2977 64.4893C88.825 64.4893 87.6311 65.6833 87.6311 67.156ZM123.932 108.902C123.932 110.374 125.126 111.568 126.598 111.568C128.071 111.568 129.265 110.374 129.265 108.902C129.265 107.429 128.071 106.235 126.598 106.235C125.126 106.235 123.932 107.429 123.932 108.902ZM90.4483 67.6328C96.7392 65.6462 105.821 67.3562 115.065 71.1048C124.283 74.8427 133.544 80.5592 140.14 86.4286C143.439 89.3643 146.051 92.3208 147.663 95.0687C149.281 97.8277 149.843 100.294 149.203 102.304C148.568 104.292 146.698 106.003 143.045 107.129C139.391 108.255 134.039 108.764 126.623 108.402L126.574 109.401C134.041 109.765 139.525 109.26 143.339 108.085C147.153 106.91 149.381 105.034 150.155 102.607C150.923 100.201 150.203 97.4226 148.525 94.5628C146.842 91.6919 144.147 88.6559 140.804 85.6815C134.117 79.7305 124.756 73.9556 115.441 70.1781C106.152 66.4114 96.7883 64.582 90.1472 66.6792L90.4483 67.6328Z" fill="white" fill-opacity="0.2"/>
<defs>
<linearGradient id="paint0_linear_16_24" x1="122.228" y1="24.7287" x2="140.833" y2="37.4339" gradientUnits="userSpaceOnUse">
<stop stop-color="white"/>
<stop offset="1"/>
</linearGradient>
<linearGradient id="paint1_linear_16_24" x1="16.8966" y1="74.9963" x2="70.8048" y2="124.881" gradientUnits="userSpaceOnUse">
<stop stop-color="#B809A6"/>
<stop offset="0.493871" stop-color="#561564"/>
<stop offset="0.879055" stop-color="#0F063C"/>
</linearGradient>
</defs>
</svg>
