<svg width="1378" height="768" viewBox="0 0 1378 768" fill="none" xmlns="http://www.w3.org/2000/svg">
<g clip-path="url(#clip0_327_22)">
<rect width="1378" height="768" fill="url(#paint0_linear_327_22)"/>
<path d="M0 283.575C63.3333 237.408 184.8 186.175 164 350.575C143.2 514.975 200 516.075 231 496.075C272.167 458.741 363.4 412.075 399 524.075C434.6 636.075 385.167 690.075 356 703.075C311.861 724.929 268.267 764.295 390.397 770.075H462C433.487 771.064 409.841 770.995 390.397 770.075H0V283.575Z" fill="url(#paint1_linear_327_22)"/>
<g opacity="0.15">
<circle cx="1148" cy="637" r="91" fill="url(#paint2_linear_327_22)"/>
<circle cx="575" cy="88" r="70" fill="url(#paint3_linear_327_22)"/>
<circle cx="946.305" cy="72.3053" r="147.716" transform="rotate(-113.455 946.305 72.3053)" fill="url(#paint4_linear_327_22)"/>
<path d="M1148.33 605C1148.33 606.473 1149.53 607.667 1151 607.667C1152.47 607.667 1153.67 606.473 1153.67 605C1153.67 603.527 1152.47 602.333 1151 602.333C1149.53 602.333 1148.33 603.527 1148.33 605ZM931.333 210C931.333 211.473 932.527 212.667 934 212.667C935.473 212.667 936.667 211.473 936.667 210C936.667 208.527 935.473 207.333 934 207.333C932.527 207.333 931.333 208.527 931.333 210ZM1151.28 605.417C1180.18 586.246 1193.47 550.684 1194.09 508.554C1194.72 466.415 1182.69 417.609 1160.83 371.785C1117.13 280.172 1034.02 200.223 933.954 209.502L934.046 210.498C1033.48 201.277 1116.29 280.744 1159.92 372.215C1181.73 417.932 1193.72 466.585 1193.09 508.539C1192.47 550.503 1179.24 585.67 1150.72 604.583L1151.28 605.417Z" fill="white" fill-opacity="0.7"/>
<path d="M548.333 102C548.333 103.473 549.527 104.667 551 104.667C552.473 104.667 553.667 103.473 553.667 102C553.667 100.527 552.473 99.3333 551 99.3333C549.527 99.3333 548.333 100.527 548.333 102ZM874.652 164C874.652 165.473 875.846 166.667 877.318 166.667C878.791 166.667 879.985 165.473 879.985 164C879.985 162.527 878.791 161.333 877.318 161.333C875.846 161.333 874.652 162.527 874.652 164ZM550.711 102.408C587.858 128.674 614.073 141.612 635.71 147.243C657.363 152.879 674.393 151.185 693.124 148.269C711.849 145.354 732.266 141.22 760.802 141.903C789.336 142.586 826.002 148.088 877.166 164.476L877.471 163.524C826.235 147.112 789.474 141.589 760.826 140.903C732.18 140.218 711.662 144.371 692.97 147.281C674.284 150.19 657.415 151.859 635.962 146.275C614.492 140.688 588.392 127.826 551.289 101.592L550.711 102.408Z" fill="white" fill-opacity="0.7"/>
<circle cx="351" cy="448" r="43" fill="url(#paint5_linear_327_22)"/>
<circle cx="168.464" cy="79.4645" r="28.158" transform="rotate(-120 168.464 79.4645)" fill="url(#paint6_linear_327_22)"/>
<path d="M351.423 436.082L350.582 440.077L354.577 440.918L355.418 436.923L351.423 436.082ZM1085.33 638.5C1085.33 639.973 1086.53 641.167 1088 641.167C1089.47 641.167 1090.67 639.973 1090.67 638.5C1090.67 637.027 1089.47 635.833 1088 635.833C1086.53 635.833 1085.33 637.027 1085.33 638.5ZM352.581 438.773C383.095 485.545 439.407 567.515 551.908 621.825C664.412 676.138 833.037 702.756 1088.12 638.985L1087.88 638.015C832.963 701.744 664.588 675.112 552.342 620.925C440.093 566.735 383.905 484.955 353.419 438.227L352.581 438.773Z" fill="white" fill-opacity="0.7"/>
<path d="M173.833 77C173.833 78.4727 175.027 79.6666 176.5 79.6666C177.973 79.6666 179.167 78.4727 179.167 77C179.167 75.5272 177.973 74.3333 176.5 74.3333C175.027 74.3333 173.833 75.5272 173.833 77ZM526.833 77C526.833 78.4727 528.027 79.6667 529.5 79.6667C530.973 79.6667 532.167 78.4727 532.167 77C532.167 75.5272 530.973 74.3333 529.5 74.3333C528.027 74.3333 526.833 75.5272 526.833 77ZM176.516 77.4997C193.952 76.9575 222.718 74.2344 256.537 71.0712C290.366 67.9071 329.269 64.3006 367.006 61.9865C404.746 59.6723 441.301 58.6521 470.438 60.6566C485.007 61.6589 497.703 63.4164 507.756 66.139C517.828 68.8666 525.166 72.5416 529.115 77.3185L529.885 76.6814C525.734 71.6584 518.143 67.9157 508.018 65.1738C497.875 62.427 485.107 60.6634 470.506 59.659C441.303 57.6499 404.696 58.6735 366.944 60.9884C329.189 63.3036 290.271 66.9116 256.444 70.0756C222.607 73.2405 193.881 75.9592 176.484 76.5002L176.516 77.4997Z" fill="white" fill-opacity="0.7"/>
</g>
<path d="M0 283.575C63.3333 237.408 184.8 186.175 164 350.575C143.2 514.975 200 516.075 231 496.075C272.167 458.741 363.4 412.075 399 524.075C434.6 636.075 385.167 690.075 356 703.075C311.861 724.929 268.267 764.295 390.397 770.075H462C433.487 771.064 409.841 770.995 390.397 770.075H0V283.575Z" fill="url(#paint7_linear_327_22)"/>
<path d="M1378.11 471.299C1314.66 517.317 1193.08 568.265 1214.26 403.914C1235.45 239.564 1178.65 238.33 1147.61 258.258C1106.35 295.494 1015.01 341.947 979.671 229.863C944.334 117.78 993.894 63.8963 1023.09 50.9648C1067.28 29.2145 1110.97 -10.0498 988.852 -16.1158L917.249 -16.2839C945.764 -17.2058 969.41 -17.0816 988.852 -16.1158L1379.25 -15.1994L1378.11 471.299Z" fill="url(#paint8_linear_327_22)"/>
<circle cx="193.607" cy="165.266" r="16.6069" fill="url(#paint9_linear_327_22)"/>
<path d="M386.503 218.919C386.503 219.851 386.49 220.781 386.465 221.707C341.437 264.953 284.832 286.467 245.686 294.022C270.823 294.022 335.69 278.681 381.757 249.594C368.774 290.331 330.625 319.838 285.584 319.838C229.848 319.838 184.665 274.655 184.665 218.919C184.665 163.183 229.848 118 285.584 118C327.174 118 362.888 143.158 378.337 179.087C331.305 243.352 258.02 273.113 210.481 282.287C244.324 282.287 350.176 254.481 385.216 202.761C386.063 208.022 386.503 213.419 386.503 218.919Z" fill="url(#paint10_linear_327_22)"/>
<path d="M309.105 212.532C309.105 214.004 310.299 215.198 311.772 215.198C313.244 215.198 314.438 214.004 314.438 212.532C314.438 211.059 313.244 209.865 311.772 209.865C310.299 209.865 309.105 211.059 309.105 212.532ZM360.203 271.295C360.203 272.767 361.397 273.961 362.87 273.961C364.343 273.961 365.537 272.767 365.537 271.295C365.537 269.822 364.343 268.628 362.87 268.628C361.397 268.628 360.203 269.822 360.203 271.295ZM311.922 213.008C320.849 210.19 333.69 212.621 346.712 217.901C359.707 223.171 372.763 231.23 382.067 239.508C386.72 243.649 390.414 247.827 392.697 251.72C394.987 255.624 395.811 259.159 394.883 262.069C393.962 264.957 391.256 267.399 386.081 268.994C380.905 270.589 373.344 271.305 362.894 270.795L362.846 271.794C373.346 272.306 381.039 271.594 386.375 269.95C391.711 268.306 394.775 265.7 395.836 262.373C396.89 259.067 395.908 255.219 393.56 251.214C391.205 247.198 387.428 242.94 382.731 238.761C373.336 230.401 360.181 222.284 347.088 216.975C334.021 211.676 320.898 209.125 311.621 212.055L311.922 213.008Z" fill="white" fill-opacity="0.2"/>
</g>
<defs>
<linearGradient id="paint0_linear_327_22" x1="590.459" y1="325" x2="1033.29" y2="976.157" gradientUnits="userSpaceOnUse">
<stop/>
<stop offset="1" stop-color="#BB20BE" stop-opacity="0"/>
</linearGradient>
<linearGradient id="paint1_linear_327_22" x1="312.5" y1="328.5" x2="34.5" y2="746" gradientUnits="userSpaceOnUse">
<stop stop-color="#A80AE1"/>
<stop offset="1" stop-color="#126CCD"/>
</linearGradient>
<linearGradient id="paint2_linear_327_22" x1="1069" y1="637" x2="1221" y2="637" gradientUnits="userSpaceOnUse">
<stop stop-color="#9D12E0"/>
<stop offset="1" stop-color="#136DCE"/>
</linearGradient>
<linearGradient id="paint3_linear_327_22" x1="535.309" y1="35.3196" x2="632.01" y2="124.804" gradientUnits="userSpaceOnUse">
<stop stop-color="#3EE0B9"/>
<stop offset="1" stop-color="#372494"/>
</linearGradient>
<linearGradient id="paint4_linear_327_22" x1="818.068" y1="72.3053" x2="1064.8" y2="72.3053" gradientUnits="userSpaceOnUse">
<stop stop-color="#9D12E0"/>
<stop offset="1" stop-color="#136DCE"/>
</linearGradient>
<linearGradient id="paint5_linear_327_22" x1="326.619" y1="415.639" x2="386.021" y2="470.608" gradientUnits="userSpaceOnUse">
<stop stop-color="#B809A6"/>
<stop offset="1" stop-color="#372494"/>
</linearGradient>
<linearGradient id="paint6_linear_327_22" x1="152.499" y1="58.2735" x2="191.397" y2="94.2692" gradientUnits="userSpaceOnUse">
<stop stop-color="#3EE0B9"/>
<stop offset="1" stop-color="#372494"/>
</linearGradient>
<linearGradient id="paint7_linear_327_22" x1="312.5" y1="328.5" x2="34.5" y2="746" gradientUnits="userSpaceOnUse">
<stop stop-color="#A80AE1"/>
<stop offset="1" stop-color="#126CCD"/>
</linearGradient>
<linearGradient id="paint8_linear_327_22" x1="1065.71" y1="425.64" x2="1344.69" y2="8.79421" gradientUnits="userSpaceOnUse">
<stop stop-color="#A80AE1"/>
<stop offset="1" stop-color="#126CCD"/>
</linearGradient>
<linearGradient id="paint9_linear_327_22" x1="180.194" y1="156.962" x2="206.382" y2="174.847" gradientUnits="userSpaceOnUse">
<stop stop-color="white"/>
<stop offset="1"/>
</linearGradient>
<linearGradient id="paint10_linear_327_22" x1="208.449" y1="223.568" x2="284.333" y2="293.789" gradientUnits="userSpaceOnUse">
<stop stop-color="#B809A6"/>
<stop offset="0.493871" stop-color="#561564"/>
<stop offset="0.879055" stop-color="#0F063C"/>
</linearGradient>
<clipPath id="clip0_327_22">
<rect width="1378" height="768" fill="white"/>
</clipPath>
</defs>
</svg>
