<svg width="874" height="768" viewBox="0 0 874 768" fill="none" xmlns="http://www.w3.org/2000/svg">
<g clip-path="url(#clip0_1_2)">
<rect width="874" height="768" fill="black"/>
<path d="M0 283.575C63.3333 237.408 184.8 186.175 164 350.575C143.2 514.975 200 516.075 231 496.075C272.167 458.741 363.4 412.075 399 524.075C434.6 636.075 385.167 690.075 356 703.075C311.861 724.929 268.267 764.295 390.397 770.075H462C433.487 771.064 409.841 770.995 390.397 770.075H0V283.575Z" fill="url(#paint0_linear_1_2)"/>
<circle cx="221" cy="419" r="43" fill="url(#paint1_linear_1_2)"/>
<circle cx="574" cy="617" r="91" fill="url(#paint2_linear_1_2)"/>
<circle cx="189.463" cy="65.6276" r="11.7977" fill="url(#paint3_linear_1_2)"/>
<path d="M201.092 106.694C201.092 107.356 201.083 108.016 201.066 108.674C169.077 139.396 128.865 154.68 101.055 160.047C118.913 160.047 164.995 149.149 197.721 128.485C188.498 157.426 161.396 178.387 129.399 178.387C89.8035 178.387 57.7051 146.289 57.7051 106.694C57.7051 67.0983 89.8035 35 129.399 35C158.945 35 184.316 52.8726 195.292 78.3963C161.88 124.051 109.817 145.193 76.0453 151.711C100.088 151.711 175.286 131.957 200.178 95.2146C200.78 98.9522 201.092 102.786 201.092 106.694Z" fill="url(#paint4_linear_1_2)"/>
<path d="M145.336 102.156C145.336 103.629 146.53 104.823 148.003 104.823C149.476 104.823 150.67 103.629 150.67 102.156C150.67 100.683 149.476 99.4893 148.003 99.4893C146.53 99.4893 145.336 100.683 145.336 102.156ZM181.637 143.902C181.637 145.374 182.831 146.568 184.303 146.568C185.776 146.568 186.97 145.374 186.97 143.902C186.97 142.429 185.776 141.235 184.303 141.235C182.831 141.235 181.637 142.429 181.637 143.902ZM148.153 102.633C154.444 100.646 163.526 102.356 172.77 106.105C181.988 109.843 191.249 115.559 197.845 121.429C201.144 124.364 203.757 127.321 205.368 130.069C206.986 132.828 207.549 135.294 206.908 137.304C206.274 139.292 204.404 141.003 200.75 142.129C197.096 143.255 191.744 143.764 184.328 143.402L184.279 144.401C191.746 144.765 197.23 144.26 201.044 143.085C204.858 141.91 207.087 140.034 207.86 137.607C208.628 135.201 207.908 132.423 206.231 129.563C204.547 126.692 201.852 123.656 198.509 120.681C191.822 114.73 182.461 108.956 173.146 105.178C163.857 101.411 154.493 99.582 147.852 101.679L148.153 102.633Z" fill="white" fill-opacity="0.2"/>
<path d="M45 184.851V159.83H55.2103C56.7702 159.83 58.141 160.152 59.3228 160.795C60.5282 161.415 61.4617 162.296 62.1235 163.44C62.8089 164.584 63.1516 165.942 63.1516 167.515V168.015C63.1516 169.564 62.7971 170.923 62.0881 172.09C61.4027 173.234 60.4573 174.128 59.2519 174.771C58.0701 175.391 56.7229 175.7 55.2103 175.7H49.6797V184.851H45ZM49.6797 171.411H54.7494C55.8603 171.411 56.7584 171.101 57.4438 170.482C58.1292 169.862 58.4719 169.016 58.4719 167.944V167.586C58.4719 166.514 58.1292 165.668 57.4438 165.049C56.7584 164.429 55.8603 164.119 54.7494 164.119H49.6797V171.411Z" fill="white"/>
<path d="M67.6015 184.851V167.122H71.9976V169.123H72.6357C72.8957 168.409 73.3211 167.884 73.912 167.551C74.5265 167.217 75.2356 167.05 76.0391 167.05H78.1663V171.054H75.9682C74.8338 171.054 73.9002 171.363 73.1675 171.983C72.4348 172.579 72.0685 173.508 72.0685 174.771V184.851H67.6015Z" fill="white"/>
<path d="M90.4649 185.352C88.716 185.352 87.1442 184.994 85.7498 184.279C84.3553 183.564 83.2563 182.528 82.4527 181.169C81.6491 179.811 81.2473 178.179 81.2473 176.272V175.7C81.2473 173.794 81.6491 172.162 82.4527 170.803C83.2563 169.445 84.3553 168.409 85.7498 167.694C87.1442 166.979 88.716 166.621 90.4649 166.621C92.2139 166.621 93.7857 166.979 95.1801 167.694C96.5746 168.409 97.6736 169.445 98.4772 170.803C99.2808 172.162 99.6826 173.794 99.6826 175.7V176.272C99.6826 178.179 99.2808 179.811 98.4772 181.169C97.6736 182.528 96.5746 183.564 95.1801 184.279C93.7857 184.994 92.2139 185.352 90.4649 185.352ZM90.4649 181.348C91.8358 181.348 92.9703 180.907 93.8684 180.026C94.7665 179.12 95.2156 177.833 95.2156 176.165V175.808C95.2156 174.14 94.7665 172.865 93.8684 171.983C92.9939 171.078 91.8594 170.625 90.4649 170.625C89.0941 170.625 87.9596 171.078 87.0615 171.983C86.1634 172.865 85.7143 174.14 85.7143 175.808V176.165C85.7143 177.833 86.1634 179.12 87.0615 180.026C87.9596 180.907 89.0941 181.348 90.4649 181.348Z" fill="white"/>
<path d="M102.167 184.851L108.548 175.915L102.238 167.122H107.414L111.42 173.02H112.058L116.064 167.122H121.24L114.93 175.915L121.311 184.851H116.064L112.058 178.882H111.42L107.414 184.851H102.167Z" fill="white"/>
<path d="M127.686 192V188.068H137.258C137.919 188.068 138.25 187.711 138.25 186.996V182.528H137.612C137.423 182.933 137.128 183.338 136.726 183.743C136.324 184.148 135.781 184.482 135.095 184.744C134.41 185.006 133.535 185.137 132.472 185.137C131.101 185.137 129.895 184.827 128.855 184.208C127.839 183.564 127.047 182.683 126.48 181.563C125.913 180.443 125.629 179.156 125.629 177.702V167.122H130.096V177.345C130.096 178.679 130.415 179.68 131.054 180.347C131.715 181.014 132.649 181.348 133.854 181.348C135.225 181.348 136.289 180.895 137.045 179.99C137.801 179.06 138.179 177.774 138.179 176.129V167.122H142.646V187.997C142.646 189.212 142.292 190.177 141.583 190.892C140.874 191.631 139.928 192 138.747 192H127.686Z" fill="white"/>
<path d="M148.539 184.851V159.83H157.225L161.515 181.634H162.153L166.443 159.83H175.128V184.851H170.59V163.297H169.952L165.698 184.851H157.969L153.715 163.297H153.077V184.851H148.539Z" fill="white"/>
<path d="M181.008 184.851V167.122H185.475V184.851H181.008ZM183.241 165.049C182.438 165.049 181.752 164.786 181.185 164.262C180.641 163.738 180.369 163.047 180.369 162.189C180.369 161.331 180.641 160.64 181.185 160.116C181.752 159.592 182.438 159.329 183.241 159.329C184.068 159.329 184.754 159.592 185.297 160.116C185.841 160.64 186.113 161.331 186.113 162.189C186.113 163.047 185.841 163.738 185.297 164.262C184.754 164.786 184.068 165.049 183.241 165.049Z" fill="white"/>
<path d="M198.224 184.851C197.066 184.851 196.121 184.494 195.388 183.779C194.679 183.04 194.324 182.063 194.324 180.848V170.839H189.928V167.122H194.324V161.617H198.791V167.122H203.613V170.839H198.791V180.061C198.791 180.776 199.122 181.134 199.784 181.134H203.188V184.851H198.224Z" fill="white"/>
<path d="M210.634 192V188.068H220.207C220.868 188.068 221.199 187.711 221.199 186.996V182.528H220.561C220.372 182.933 220.077 183.338 219.675 183.743C219.273 184.148 218.729 184.482 218.044 184.744C217.359 185.006 216.484 185.137 215.421 185.137C214.05 185.137 212.844 184.827 211.804 184.208C210.788 183.564 209.996 182.683 209.429 181.563C208.862 180.443 208.578 179.156 208.578 177.702V167.122H213.045V177.345C213.045 178.679 213.364 179.68 214.002 180.347C214.664 181.014 215.598 181.348 216.803 181.348C218.174 181.348 219.238 180.895 219.994 179.99C220.75 179.06 221.128 177.774 221.128 176.129V167.122H225.595V187.997C225.595 189.212 225.241 190.177 224.532 190.892C223.823 191.631 222.877 192 221.696 192H210.634Z" fill="white"/>
<circle cx="328.464" cy="43.4645" r="28.158" transform="rotate(-120 328.464 43.4645)" fill="url(#paint5_linear_1_2)"/>
<path d="M259.195 347L264.691 330.2H267.427L272.923 347H271.315L269.875 342.536H262.243L260.803 347H259.195ZM262.675 341.144H269.443L266.203 331.112H265.915L262.675 341.144ZM283.005 351.8V335.336H284.397V337.472H284.685C285.021 336.832 285.541 336.264 286.245 335.768C286.965 335.256 287.965 335 289.245 335C290.285 335 291.229 335.248 292.077 335.744C292.925 336.224 293.597 336.912 294.093 337.808C294.605 338.704 294.861 339.776 294.861 341.024V341.312C294.861 342.544 294.613 343.616 294.117 344.528C293.621 345.424 292.949 346.12 292.101 346.616C291.253 347.096 290.301 347.336 289.245 347.336C288.397 347.336 287.669 347.224 287.061 347C286.469 346.76 285.981 346.456 285.597 346.088C285.229 345.72 284.941 345.344 284.733 344.96H284.445V351.8H283.005ZM288.909 346.04C290.237 346.04 291.309 345.616 292.125 344.768C292.957 343.92 293.373 342.752 293.373 341.264V341.072C293.373 339.584 292.957 338.416 292.125 337.568C291.309 336.72 290.237 336.296 288.909 336.296C287.597 336.296 286.525 336.72 285.693 337.568C284.861 338.416 284.445 339.584 284.445 341.072V341.264C284.445 342.752 284.861 343.92 285.693 344.768C286.525 345.616 287.597 346.04 288.909 346.04ZM299.24 347V330.2H300.68V347H299.24ZM309.208 347.336C308.392 347.336 307.648 347.2 306.976 346.928C306.32 346.64 305.8 346.224 305.416 345.68C305.032 345.136 304.84 344.48 304.84 343.712C304.84 342.928 305.032 342.28 305.416 341.768C305.8 341.256 306.32 340.872 306.976 340.616C307.632 340.36 308.36 340.232 309.16 340.232H313.432V339.296C313.432 338.352 313.16 337.616 312.616 337.088C312.072 336.56 311.28 336.296 310.24 336.296C309.216 336.296 308.4 336.552 307.792 337.064C307.2 337.56 306.8 338.232 306.592 339.08L305.2 338.672C305.392 337.984 305.696 337.368 306.112 336.824C306.528 336.264 307.08 335.824 307.768 335.504C308.456 335.168 309.28 335 310.24 335C311.712 335 312.848 335.384 313.648 336.152C314.464 336.92 314.872 337.992 314.872 339.368V345.032C314.872 345.512 315.096 345.752 315.544 345.752H316.672V347H315.136C314.64 347 314.248 346.856 313.96 346.568C313.672 346.264 313.528 345.856 313.528 345.344V345.176H313.288C313.08 345.528 312.808 345.872 312.472 346.208C312.152 346.544 311.728 346.816 311.2 347.024C310.672 347.232 310.008 347.336 309.208 347.336ZM309.304 346.04C310.536 346.04 311.528 345.672 312.28 344.936C313.048 344.184 313.432 343.128 313.432 341.768V341.48H309.184C308.352 341.48 307.656 341.664 307.096 342.032C306.552 342.384 306.28 342.936 306.28 343.688C306.28 344.44 306.56 345.024 307.12 345.44C307.696 345.84 308.424 346.04 309.304 346.04ZM325.11 347.336C323.974 347.336 322.958 347.096 322.062 346.616C321.182 346.12 320.486 345.416 319.974 344.504C319.462 343.592 319.206 342.52 319.206 341.288V341.048C319.206 339.8 319.462 338.728 319.974 337.832C320.486 336.92 321.182 336.224 322.062 335.744C322.958 335.248 323.974 335 325.11 335C326.23 335 327.174 335.216 327.942 335.648C328.726 336.064 329.334 336.616 329.766 337.304C330.214 337.976 330.494 338.688 330.606 339.44L329.19 339.728C329.11 339.104 328.91 338.536 328.59 338.024C328.27 337.496 327.822 337.08 327.246 336.776C326.67 336.456 325.958 336.296 325.11 336.296C324.262 336.296 323.502 336.496 322.83 336.896C322.158 337.28 321.622 337.832 321.222 338.552C320.838 339.256 320.646 340.096 320.646 341.072V341.264C320.646 342.24 320.838 343.088 321.222 343.808C321.622 344.512 322.158 345.064 322.83 345.464C323.502 345.848 324.262 346.04 325.11 346.04C326.39 346.04 327.366 345.712 328.038 345.056C328.71 344.384 329.126 343.568 329.286 342.608L330.702 342.896C330.558 343.648 330.254 344.368 329.79 345.056C329.342 345.728 328.726 346.28 327.942 346.712C327.174 347.128 326.23 347.336 325.11 347.336ZM340.339 347.336C339.139 347.336 338.091 347.088 337.195 346.592C336.315 346.08 335.627 345.368 335.131 344.456C334.635 343.544 334.387 342.496 334.387 341.312V341.024C334.387 339.824 334.635 338.776 335.131 337.88C335.627 336.968 336.307 336.264 337.171 335.768C338.051 335.256 339.051 335 340.171 335C341.259 335 342.219 335.232 343.051 335.696C343.899 336.144 344.563 336.8 345.043 337.664C345.523 338.512 345.763 339.528 345.763 340.712V341.48H335.827C335.875 342.936 336.315 344.064 337.147 344.864C337.995 345.648 339.059 346.04 340.339 346.04C341.427 346.04 342.267 345.792 342.859 345.296C343.467 344.8 343.931 344.192 344.251 343.472L345.547 344.048C345.307 344.576 344.971 345.096 344.539 345.608C344.123 346.104 343.579 346.52 342.907 346.856C342.235 347.176 341.379 347.336 340.339 347.336ZM335.851 340.232H344.299C344.235 338.968 343.827 338 343.075 337.328C342.323 336.64 341.355 336.296 340.171 336.296C339.003 336.296 338.035 336.64 337.267 337.328C336.499 338 336.027 338.968 335.851 340.232ZM358.854 347L356.214 335.336H357.702L360.006 346.04H360.294L363.294 335.336H365.742L368.742 346.04H369.03L371.334 335.336H372.822L370.182 347H367.662L364.662 336.296H364.374L361.374 347H358.854ZM377.037 347V330.2H378.477V337.376H378.765C378.957 336.992 379.221 336.632 379.557 336.296C379.909 335.944 380.357 335.664 380.901 335.456C381.461 335.232 382.157 335.12 382.989 335.12C383.837 335.12 384.613 335.296 385.317 335.648C386.021 336 386.581 336.528 386.997 337.232C387.429 337.936 387.645 338.824 387.645 339.896V347H386.205V339.992C386.205 338.712 385.885 337.8 385.245 337.256C384.605 336.696 383.749 336.416 382.677 336.416C381.477 336.416 380.477 336.808 379.677 337.592C378.877 338.376 378.477 339.568 378.477 341.168V347H377.037ZM397.828 347.336C396.628 347.336 395.58 347.088 394.684 346.592C393.804 346.08 393.116 345.368 392.62 344.456C392.124 343.544 391.876 342.496 391.876 341.312V341.024C391.876 339.824 392.124 338.776 392.62 337.88C393.116 336.968 393.796 336.264 394.66 335.768C395.54 335.256 396.54 335 397.66 335C398.748 335 399.708 335.232 400.54 335.696C401.388 336.144 402.052 336.8 402.532 337.664C403.012 338.512 403.252 339.528 403.252 340.712V341.48H393.316C393.364 342.936 393.804 344.064 394.636 344.864C395.484 345.648 396.548 346.04 397.828 346.04C398.916 346.04 399.756 345.792 400.348 345.296C400.956 344.8 401.42 344.192 401.74 343.472L403.036 344.048C402.796 344.576 402.46 345.096 402.028 345.608C401.612 346.104 401.068 346.52 400.396 346.856C399.724 347.176 398.868 347.336 397.828 347.336ZM393.34 340.232H401.788C401.724 338.968 401.316 338 400.564 337.328C399.812 336.64 398.844 336.296 397.66 336.296C396.492 336.296 395.524 336.64 394.756 337.328C393.988 338 393.516 338.968 393.34 340.232ZM407.516 347V335.336H408.908V336.8H409.196C409.42 336.272 409.748 335.888 410.18 335.648C410.628 335.408 411.244 335.288 412.028 335.288H413.396V336.632H411.86C410.98 336.632 410.276 336.88 409.748 337.376C409.22 337.872 408.956 338.648 408.956 339.704V347H407.516ZM422.049 347.336C420.849 347.336 419.801 347.088 418.905 346.592C418.025 346.08 417.337 345.368 416.841 344.456C416.345 343.544 416.097 342.496 416.097 341.312V341.024C416.097 339.824 416.345 338.776 416.841 337.88C417.337 336.968 418.017 336.264 418.881 335.768C419.761 335.256 420.761 335 421.881 335C422.969 335 423.929 335.232 424.761 335.696C425.609 336.144 426.273 336.8 426.753 337.664C427.233 338.512 427.473 339.528 427.473 340.712V341.48H417.537C417.585 342.936 418.025 344.064 418.857 344.864C419.705 345.648 420.769 346.04 422.049 346.04C423.137 346.04 423.977 345.792 424.569 345.296C425.177 344.8 425.641 344.192 425.961 343.472L427.257 344.048C427.017 344.576 426.681 345.096 426.249 345.608C425.833 346.104 425.289 346.52 424.617 346.856C423.945 347.176 423.089 347.336 422.049 347.336ZM417.561 340.232H426.009C425.945 338.968 425.537 338 424.785 337.328C424.033 336.64 423.065 336.296 421.881 336.296C420.713 336.296 419.745 336.64 418.977 337.328C418.209 338 417.737 338.968 417.561 340.232ZM440.109 351.8V350.504H446.925C447.405 350.504 447.645 350.264 447.645 349.784V344.984H447.357C447.165 345.368 446.893 345.736 446.541 346.088C446.205 346.424 445.757 346.704 445.197 346.928C444.653 347.136 443.965 347.24 443.133 347.24C442.301 347.24 441.525 347.064 440.805 346.712C440.101 346.36 439.533 345.832 439.101 345.128C438.685 344.424 438.477 343.536 438.477 342.464V335.336H439.917V342.368C439.917 343.632 440.237 344.544 440.877 345.104C441.517 345.664 442.373 345.944 443.445 345.944C444.645 345.944 445.645 345.552 446.445 344.768C447.245 343.984 447.645 342.792 447.645 341.192V335.336H449.085V349.976C449.085 350.552 448.925 351 448.605 351.32C448.301 351.64 447.837 351.8 447.213 351.8H440.109ZM459.365 347.336C458.181 347.336 457.141 347.088 456.245 346.592C455.365 346.08 454.677 345.376 454.181 344.48C453.701 343.568 453.461 342.512 453.461 341.312V341.024C453.461 339.824 453.701 338.776 454.181 337.88C454.677 336.968 455.365 336.264 456.245 335.768C457.141 335.256 458.181 335 459.365 335C460.549 335 461.581 335.256 462.461 335.768C463.357 336.264 464.045 336.968 464.525 337.88C465.021 338.776 465.269 339.824 465.269 341.024V341.312C465.269 342.512 465.021 343.568 464.525 344.48C464.045 345.376 463.357 346.08 462.461 346.592C461.581 347.088 460.549 347.336 459.365 347.336ZM459.365 346.04C460.741 346.04 461.829 345.608 462.629 344.744C463.429 343.864 463.829 342.704 463.829 341.264V341.072C463.829 339.632 463.429 338.48 462.629 337.616C461.829 336.736 460.741 336.296 459.365 336.296C458.005 336.296 456.917 336.736 456.101 337.616C455.301 338.48 454.901 339.632 454.901 341.072V341.264C454.901 342.704 455.301 343.864 456.101 344.744C456.917 345.608 458.005 346.04 459.365 346.04ZM474.127 347.24C473.295 347.24 472.519 347.064 471.799 346.712C471.095 346.36 470.527 345.832 470.095 345.128C469.679 344.408 469.471 343.512 469.471 342.44V335.336H470.911V342.344C470.911 343.608 471.231 344.528 471.871 345.104C472.511 345.664 473.367 345.944 474.439 345.944C475.639 345.944 476.639 345.552 477.439 344.768C478.239 343.968 478.639 342.768 478.639 341.168V335.336H480.079V347H478.687V344.84H478.399C478.111 345.464 477.639 346.024 476.983 346.52C476.327 347 475.375 347.24 474.127 347.24ZM497.267 347.336C496.131 347.336 495.115 347.096 494.219 346.616C493.339 346.12 492.643 345.416 492.131 344.504C491.619 343.592 491.363 342.52 491.363 341.288V341.048C491.363 339.8 491.619 338.728 492.131 337.832C492.643 336.92 493.339 336.224 494.219 335.744C495.115 335.248 496.131 335 497.267 335C498.387 335 499.331 335.216 500.099 335.648C500.883 336.064 501.491 336.616 501.923 337.304C502.371 337.976 502.651 338.688 502.763 339.44L501.347 339.728C501.267 339.104 501.067 338.536 500.747 338.024C500.427 337.496 499.979 337.08 499.403 336.776C498.827 336.456 498.115 336.296 497.267 336.296C496.419 336.296 495.659 336.496 494.987 336.896C494.315 337.28 493.779 337.832 493.379 338.552C492.995 339.256 492.803 340.096 492.803 341.072V341.264C492.803 342.24 492.995 343.088 493.379 343.808C493.779 344.512 494.315 345.064 494.987 345.464C495.659 345.848 496.419 346.04 497.267 346.04C498.547 346.04 499.523 345.712 500.195 345.056C500.867 344.384 501.283 343.568 501.443 342.608L502.859 342.896C502.715 343.648 502.411 344.368 501.947 345.056C501.499 345.728 500.883 346.28 500.099 346.712C499.331 347.128 498.387 347.336 497.267 347.336ZM510.696 347.336C509.88 347.336 509.136 347.2 508.464 346.928C507.808 346.64 507.288 346.224 506.904 345.68C506.52 345.136 506.328 344.48 506.328 343.712C506.328 342.928 506.52 342.28 506.904 341.768C507.288 341.256 507.808 340.872 508.464 340.616C509.12 340.36 509.848 340.232 510.648 340.232H514.92V339.296C514.92 338.352 514.648 337.616 514.104 337.088C513.56 336.56 512.768 336.296 511.728 336.296C510.704 336.296 509.888 336.552 509.28 337.064C508.688 337.56 508.288 338.232 508.08 339.08L506.688 338.672C506.88 337.984 507.184 337.368 507.6 336.824C508.016 336.264 508.568 335.824 509.256 335.504C509.944 335.168 510.768 335 511.728 335C513.2 335 514.336 335.384 515.136 336.152C515.952 336.92 516.36 337.992 516.36 339.368V345.032C516.36 345.512 516.584 345.752 517.032 345.752H518.16V347H516.624C516.128 347 515.736 346.856 515.448 346.568C515.16 346.264 515.016 345.856 515.016 345.344V345.176H514.776C514.568 345.528 514.296 345.872 513.96 346.208C513.64 346.544 513.216 346.816 512.688 347.024C512.16 347.232 511.496 347.336 510.696 347.336ZM510.792 346.04C512.024 346.04 513.016 345.672 513.768 344.936C514.536 344.184 514.92 343.128 514.92 341.768V341.48H510.672C509.84 341.48 509.144 341.664 508.584 342.032C508.04 342.384 507.768 342.936 507.768 343.688C507.768 344.44 508.048 345.024 508.608 345.44C509.184 345.84 509.912 346.04 510.792 346.04ZM521.621 347V335.336H523.013V337.496H523.301C523.589 336.872 524.061 336.32 524.717 335.84C525.373 335.344 526.325 335.096 527.573 335.096C528.421 335.096 529.197 335.272 529.901 335.624C530.605 335.976 531.165 336.512 531.581 337.232C532.013 337.936 532.229 338.824 532.229 339.896V347H530.789V339.992C530.789 338.712 530.469 337.792 529.829 337.232C529.189 336.672 528.333 336.392 527.261 336.392C526.061 336.392 525.061 336.792 524.261 337.592C523.461 338.376 523.061 339.568 523.061 341.168V347H521.621ZM543.368 341.216V340.928C543.368 339.696 543.616 338.64 544.112 337.76C544.624 336.88 545.304 336.2 546.152 335.72C547 335.24 547.944 335 548.984 335C550.264 335 551.256 335.256 551.96 335.768C552.68 336.264 553.208 336.832 553.544 337.472H553.832V335.336H555.176V349.976C555.176 350.552 555.024 351 554.72 351.32C554.416 351.64 553.952 351.8 553.328 351.8H545.36V350.504H553.04C553.536 350.504 553.784 350.264 553.784 349.784V344.768H553.496C553.288 345.152 552.992 345.528 552.608 345.896C552.24 346.264 551.76 346.568 551.168 346.808C550.576 347.032 549.848 347.144 548.984 347.144C547.944 347.144 546.992 346.904 546.128 346.424C545.28 345.944 544.608 345.264 544.112 344.384C543.616 343.488 543.368 342.432 543.368 341.216ZM549.32 345.848C550.648 345.848 551.72 345.432 552.536 344.6C553.368 343.768 553.784 342.624 553.784 341.168V340.976C553.784 339.504 553.368 338.36 552.536 337.544C551.72 336.712 550.648 336.296 549.32 336.296C548.008 336.296 546.936 336.712 546.104 337.544C545.272 338.36 544.856 339.504 544.856 340.976V341.168C544.856 342.624 545.272 343.768 546.104 344.6C546.936 345.432 548.008 345.848 549.32 345.848ZM565.485 347.336C564.285 347.336 563.237 347.088 562.341 346.592C561.461 346.08 560.773 345.368 560.277 344.456C559.781 343.544 559.533 342.496 559.533 341.312V341.024C559.533 339.824 559.781 338.776 560.277 337.88C560.773 336.968 561.453 336.264 562.317 335.768C563.197 335.256 564.197 335 565.317 335C566.405 335 567.365 335.232 568.197 335.696C569.045 336.144 569.709 336.8 570.189 337.664C570.669 338.512 570.909 339.528 570.909 340.712V341.48H560.973C561.021 342.936 561.461 344.064 562.293 344.864C563.141 345.648 564.205 346.04 565.485 346.04C566.573 346.04 567.413 345.792 568.005 345.296C568.613 344.8 569.077 344.192 569.397 343.472L570.693 344.048C570.453 344.576 570.117 345.096 569.685 345.608C569.269 346.104 568.725 346.52 568.053 346.856C567.381 347.176 566.525 347.336 565.485 347.336ZM560.997 340.232H569.445C569.381 338.968 568.973 338 568.221 337.328C567.469 336.64 566.501 336.296 565.317 336.296C564.149 336.296 563.181 336.64 562.413 337.328C561.645 338 561.173 338.968 560.997 340.232ZM578.881 347C578.257 347 577.785 346.84 577.465 346.52C577.161 346.2 577.009 345.752 577.009 345.176V336.632H573.265V335.336H577.009V330.968H578.449V335.336H582.529V336.632H578.449V344.984C578.449 345.464 578.689 345.704 579.169 345.704H581.905V347H578.881ZM598.699 347.336C597.563 347.336 596.547 347.096 595.651 346.616C594.771 346.12 594.075 345.416 593.563 344.504C593.051 343.592 592.795 342.52 592.795 341.288V341.048C592.795 339.8 593.051 338.728 593.563 337.832C594.075 336.92 594.771 336.224 595.651 335.744C596.547 335.248 597.563 335 598.699 335C599.819 335 600.763 335.216 601.531 335.648C602.315 336.064 602.923 336.616 603.355 337.304C603.803 337.976 604.083 338.688 604.195 339.44L602.779 339.728C602.699 339.104 602.499 338.536 602.179 338.024C601.859 337.496 601.411 337.08 600.835 336.776C600.259 336.456 599.547 336.296 598.699 336.296C597.851 336.296 597.091 336.496 596.419 336.896C595.747 337.28 595.211 337.832 594.811 338.552C594.427 339.256 594.235 340.096 594.235 341.072V341.264C594.235 342.24 594.427 343.088 594.811 343.808C595.211 344.512 595.747 345.064 596.419 345.464C597.091 345.848 597.851 346.04 598.699 346.04C599.979 346.04 600.955 345.712 601.627 345.056C602.299 344.384 602.715 343.568 602.875 342.608L604.291 342.896C604.147 343.648 603.843 344.368 603.379 345.056C602.931 345.728 602.315 346.28 601.531 346.712C600.763 347.128 599.819 347.336 598.699 347.336ZM608.552 347V330.2H609.992V347H608.552ZM620.271 347.336C619.087 347.336 618.047 347.088 617.151 346.592C616.271 346.08 615.583 345.376 615.087 344.48C614.607 343.568 614.367 342.512 614.367 341.312V341.024C614.367 339.824 614.607 338.776 615.087 337.88C615.583 336.968 616.271 336.264 617.151 335.768C618.047 335.256 619.087 335 620.271 335C621.455 335 622.487 335.256 623.367 335.768C624.263 336.264 624.951 336.968 625.431 337.88C625.927 338.776 626.175 339.824 626.175 341.024V341.312C626.175 342.512 625.927 343.568 625.431 344.48C624.951 345.376 624.263 346.08 623.367 346.592C622.487 347.088 621.455 347.336 620.271 347.336ZM620.271 346.04C621.647 346.04 622.735 345.608 623.535 344.744C624.335 343.864 624.735 342.704 624.735 341.264V341.072C624.735 339.632 624.335 338.48 623.535 337.616C622.735 336.736 621.647 336.296 620.271 336.296C618.911 336.296 617.823 336.736 617.007 337.616C616.207 338.48 615.807 339.632 615.807 341.072V341.264C615.807 342.704 616.207 343.864 617.007 344.744C617.823 345.608 618.911 346.04 620.271 346.04ZM635.178 347.336C633.77 347.336 632.562 347 631.554 346.328C630.562 345.656 629.954 344.544 629.73 342.992L631.146 342.728C631.274 343.576 631.53 344.248 631.914 344.744C632.314 345.224 632.794 345.568 633.354 345.776C633.93 345.984 634.538 346.088 635.178 346.088C636.138 346.088 636.906 345.896 637.482 345.512C638.074 345.112 638.37 344.568 638.37 343.88C638.37 343.176 638.09 342.688 637.53 342.416C636.986 342.144 636.258 341.928 635.346 341.768L634.242 341.576C633.506 341.448 632.842 341.256 632.25 341C631.658 340.728 631.186 340.368 630.834 339.92C630.498 339.472 630.33 338.912 630.33 338.24C630.33 337.232 630.722 336.44 631.506 335.864C632.306 335.288 633.362 335 634.674 335C636.002 335 637.066 335.304 637.866 335.912C638.682 336.504 639.194 337.368 639.402 338.504L638.058 338.792C637.898 337.864 637.514 337.208 636.906 336.824C636.314 336.44 635.57 336.248 634.674 336.248C633.794 336.248 633.09 336.416 632.562 336.752C632.034 337.088 631.77 337.584 631.77 338.24C631.77 338.88 632.01 339.352 632.49 339.656C632.97 339.944 633.626 340.16 634.458 340.304L635.562 340.496C636.362 340.624 637.082 340.816 637.722 341.072C638.362 341.312 638.866 341.656 639.234 342.104C639.618 342.552 639.81 343.144 639.81 343.88C639.81 344.984 639.394 345.84 638.562 346.448C637.73 347.04 636.602 347.336 635.178 347.336ZM649.322 347.336C648.122 347.336 647.074 347.088 646.178 346.592C645.298 346.08 644.61 345.368 644.114 344.456C643.618 343.544 643.37 342.496 643.37 341.312V341.024C643.37 339.824 643.618 338.776 644.114 337.88C644.61 336.968 645.29 336.264 646.154 335.768C647.034 335.256 648.034 335 649.154 335C650.242 335 651.202 335.232 652.034 335.696C652.882 336.144 653.546 336.8 654.026 337.664C654.506 338.512 654.746 339.528 654.746 340.712V341.48H644.81C644.858 342.936 645.298 344.064 646.13 344.864C646.978 345.648 648.042 346.04 649.322 346.04C650.41 346.04 651.25 345.792 651.842 345.296C652.45 344.8 652.914 344.192 653.234 343.472L654.53 344.048C654.29 344.576 653.954 345.096 653.522 345.608C653.106 346.104 652.562 346.52 651.89 346.856C651.218 347.176 650.362 347.336 649.322 347.336ZM644.834 340.232H653.282C653.218 338.968 652.81 338 652.058 337.328C651.306 336.64 650.338 336.296 649.154 336.296C647.986 336.296 647.018 336.64 646.25 337.328C645.482 338 645.01 338.968 644.834 340.232ZM659.01 347V335.336H660.402V336.8H660.69C660.914 336.272 661.242 335.888 661.674 335.648C662.122 335.408 662.738 335.288 663.522 335.288H664.89V336.632H663.354C662.474 336.632 661.77 336.88 661.242 337.376C660.714 337.872 660.45 338.648 660.45 339.704V347H659.01ZM378.264 378C377.64 378 377.168 377.84 376.848 377.52C376.544 377.2 376.392 376.752 376.392 376.176V367.632H372.648V366.336H376.392V361.968H377.832V366.336H381.912V367.632H377.832V375.984C377.832 376.464 378.072 376.704 378.552 376.704H381.288V378H378.264ZM390.752 378.336C389.568 378.336 388.528 378.088 387.632 377.592C386.752 377.08 386.064 376.376 385.568 375.48C385.088 374.568 384.848 373.512 384.848 372.312V372.024C384.848 370.824 385.088 369.776 385.568 368.88C386.064 367.968 386.752 367.264 387.632 366.768C388.528 366.256 389.568 366 390.752 366C391.936 366 392.968 366.256 393.848 366.768C394.744 367.264 395.432 367.968 395.912 368.88C396.408 369.776 396.656 370.824 396.656 372.024V372.312C396.656 373.512 396.408 374.568 395.912 375.48C395.432 376.376 394.744 377.08 393.848 377.592C392.968 378.088 391.936 378.336 390.752 378.336ZM390.752 377.04C392.128 377.04 393.216 376.608 394.016 375.744C394.816 374.864 395.216 373.704 395.216 372.264V372.072C395.216 370.632 394.816 369.48 394.016 368.616C393.216 367.736 392.128 367.296 390.752 367.296C389.392 367.296 388.304 367.736 387.488 368.616C386.688 369.48 386.288 370.632 386.288 372.072V372.264C386.288 373.704 386.688 374.864 387.488 375.744C388.304 376.608 389.392 377.04 390.752 377.04ZM409.398 382.8V381.504H416.214C416.694 381.504 416.934 381.264 416.934 380.784V375.984H416.646C416.454 376.368 416.182 376.736 415.83 377.088C415.494 377.424 415.046 377.704 414.486 377.928C413.942 378.136 413.254 378.24 412.422 378.24C411.59 378.24 410.814 378.064 410.094 377.712C409.39 377.36 408.822 376.832 408.39 376.128C407.974 375.424 407.766 374.536 407.766 373.464V366.336H409.206V373.368C409.206 374.632 409.526 375.544 410.166 376.104C410.806 376.664 411.662 376.944 412.734 376.944C413.934 376.944 414.934 376.552 415.734 375.768C416.534 374.984 416.934 373.792 416.934 372.192V366.336H418.374V380.976C418.374 381.552 418.214 382 417.894 382.32C417.59 382.64 417.126 382.8 416.502 382.8H409.398ZM428.654 378.336C427.47 378.336 426.43 378.088 425.534 377.592C424.654 377.08 423.966 376.376 423.47 375.48C422.99 374.568 422.75 373.512 422.75 372.312V372.024C422.75 370.824 422.99 369.776 423.47 368.88C423.966 367.968 424.654 367.264 425.534 366.768C426.43 366.256 427.47 366 428.654 366C429.838 366 430.87 366.256 431.75 366.768C432.646 367.264 433.334 367.968 433.814 368.88C434.31 369.776 434.558 370.824 434.558 372.024V372.312C434.558 373.512 434.31 374.568 433.814 375.48C433.334 376.376 432.646 377.08 431.75 377.592C430.87 378.088 429.838 378.336 428.654 378.336ZM428.654 377.04C430.03 377.04 431.118 376.608 431.918 375.744C432.718 374.864 433.118 373.704 433.118 372.264V372.072C433.118 370.632 432.718 369.48 431.918 368.616C431.118 367.736 430.03 367.296 428.654 367.296C427.294 367.296 426.206 367.736 425.39 368.616C424.59 369.48 424.19 370.632 424.19 372.072V372.264C424.19 373.704 424.59 374.864 425.39 375.744C426.206 376.608 427.294 377.04 428.654 377.04ZM443.417 378.24C442.585 378.24 441.809 378.064 441.089 377.712C440.385 377.36 439.817 376.832 439.385 376.128C438.969 375.408 438.761 374.512 438.761 373.44V366.336H440.201V373.344C440.201 374.608 440.521 375.528 441.161 376.104C441.801 376.664 442.657 376.944 443.729 376.944C444.929 376.944 445.929 376.552 446.729 375.768C447.529 374.968 447.929 373.768 447.929 372.168V366.336H449.369V378H447.977V375.84H447.689C447.401 376.464 446.929 377.024 446.273 377.52C445.617 378 444.665 378.24 443.417 378.24ZM454.321 378V366.336H455.713V367.8H456.001C456.225 367.272 456.553 366.888 456.985 366.648C457.433 366.408 458.049 366.288 458.833 366.288H460.201V367.632H458.665C457.785 367.632 457.081 367.88 456.553 368.376C456.025 368.872 455.761 369.648 455.761 370.704V378H454.321ZM470.232 372.216V371.928C470.232 370.696 470.48 369.64 470.976 368.76C471.488 367.88 472.168 367.2 473.016 366.72C473.864 366.24 474.808 366 475.848 366C477.128 366 478.12 366.256 478.824 366.768C479.544 367.264 480.072 367.832 480.408 368.472H480.696V366.336H482.04V380.976C482.04 381.552 481.888 382 481.584 382.32C481.28 382.64 480.816 382.8 480.192 382.8H472.224V381.504H479.904C480.4 381.504 480.648 381.264 480.648 380.784V375.768H480.36C480.152 376.152 479.856 376.528 479.472 376.896C479.104 377.264 478.624 377.568 478.032 377.808C477.44 378.032 476.712 378.144 475.848 378.144C474.808 378.144 473.856 377.904 472.992 377.424C472.144 376.944 471.472 376.264 470.976 375.384C470.48 374.488 470.232 373.432 470.232 372.216ZM476.184 376.848C477.512 376.848 478.584 376.432 479.4 375.6C480.232 374.768 480.648 373.624 480.648 372.168V371.976C480.648 370.504 480.232 369.36 479.4 368.544C478.584 367.712 477.512 367.296 476.184 367.296C474.872 367.296 473.8 367.712 472.968 368.544C472.136 369.36 471.72 370.504 471.72 371.976V372.168C471.72 373.624 472.136 374.768 472.968 375.6C473.8 376.432 474.872 376.848 476.184 376.848ZM492.301 378.336C491.117 378.336 490.077 378.088 489.181 377.592C488.301 377.08 487.613 376.376 487.117 375.48C486.637 374.568 486.397 373.512 486.397 372.312V372.024C486.397 370.824 486.637 369.776 487.117 368.88C487.613 367.968 488.301 367.264 489.181 366.768C490.077 366.256 491.117 366 492.301 366C493.485 366 494.517 366.256 495.397 366.768C496.293 367.264 496.981 367.968 497.461 368.88C497.957 369.776 498.205 370.824 498.205 372.024V372.312C498.205 373.512 497.957 374.568 497.461 375.48C496.981 376.376 496.293 377.08 495.397 377.592C494.517 378.088 493.485 378.336 492.301 378.336ZM492.301 377.04C493.677 377.04 494.765 376.608 495.565 375.744C496.365 374.864 496.765 373.704 496.765 372.264V372.072C496.765 370.632 496.365 369.48 495.565 368.616C494.765 367.736 493.677 367.296 492.301 367.296C490.941 367.296 489.853 367.736 489.037 368.616C488.237 369.48 487.837 370.632 487.837 372.072V372.264C487.837 373.704 488.237 374.864 489.037 375.744C489.853 376.608 490.941 377.04 492.301 377.04ZM506.152 378.336C505.336 378.336 504.592 378.2 503.92 377.928C503.264 377.64 502.744 377.224 502.36 376.68C501.976 376.136 501.784 375.48 501.784 374.712C501.784 373.928 501.976 373.28 502.36 372.768C502.744 372.256 503.264 371.872 503.92 371.616C504.576 371.36 505.304 371.232 506.104 371.232H510.376V370.296C510.376 369.352 510.104 368.616 509.56 368.088C509.016 367.56 508.224 367.296 507.184 367.296C506.16 367.296 505.344 367.552 504.736 368.064C504.144 368.56 503.744 369.232 503.536 370.08L502.144 369.672C502.336 368.984 502.64 368.368 503.056 367.824C503.472 367.264 504.024 366.824 504.712 366.504C505.4 366.168 506.224 366 507.184 366C508.656 366 509.792 366.384 510.592 367.152C511.408 367.92 511.816 368.992 511.816 370.368V376.032C511.816 376.512 512.04 376.752 512.488 376.752H513.616V378H512.08C511.584 378 511.192 377.856 510.904 377.568C510.616 377.264 510.472 376.856 510.472 376.344V376.176H510.232C510.024 376.528 509.752 376.872 509.416 377.208C509.096 377.544 508.672 377.816 508.144 378.024C507.616 378.232 506.952 378.336 506.152 378.336ZM506.248 377.04C507.48 377.04 508.472 376.672 509.224 375.936C509.992 375.184 510.376 374.128 510.376 372.768V372.48H506.128C505.296 372.48 504.6 372.664 504.04 373.032C503.496 373.384 503.224 373.936 503.224 374.688C503.224 375.44 503.504 376.024 504.064 376.44C504.64 376.84 505.368 377.04 506.248 377.04ZM517.077 378V361.2H518.517V378H517.077ZM528.101 378.336C526.693 378.336 525.485 378 524.477 377.328C523.485 376.656 522.877 375.544 522.653 373.992L524.069 373.728C524.197 374.576 524.453 375.248 524.837 375.744C525.237 376.224 525.717 376.568 526.277 376.776C526.853 376.984 527.461 377.088 528.101 377.088C529.061 377.088 529.829 376.896 530.405 376.512C530.997 376.112 531.293 375.568 531.293 374.88C531.293 374.176 531.013 373.688 530.453 373.416C529.909 373.144 529.181 372.928 528.269 372.768L527.165 372.576C526.429 372.448 525.765 372.256 525.173 372C524.581 371.728 524.109 371.368 523.757 370.92C523.421 370.472 523.253 369.912 523.253 369.24C523.253 368.232 523.645 367.44 524.429 366.864C525.229 366.288 526.285 366 527.597 366C528.925 366 529.989 366.304 530.789 366.912C531.605 367.504 532.117 368.368 532.325 369.504L530.981 369.792C530.821 368.864 530.437 368.208 529.829 367.824C529.237 367.44 528.493 367.248 527.597 367.248C526.717 367.248 526.013 367.416 525.485 367.752C524.957 368.088 524.693 368.584 524.693 369.24C524.693 369.88 524.933 370.352 525.413 370.656C525.893 370.944 526.549 371.16 527.381 371.304L528.485 371.496C529.285 371.624 530.005 371.816 530.645 372.072C531.285 372.312 531.789 372.656 532.157 373.104C532.541 373.552 532.733 374.144 532.733 374.88C532.733 375.984 532.317 376.84 531.485 377.448C530.653 378.04 529.525 378.336 528.101 378.336ZM537.565 378.336C537.165 378.336 536.837 378.208 536.581 377.952C536.325 377.696 536.197 377.368 536.197 376.968C536.197 376.568 536.325 376.24 536.581 375.984C536.837 375.728 537.165 375.6 537.565 375.6C537.965 375.6 538.293 375.728 538.549 375.984C538.805 376.24 538.933 376.568 538.933 376.968C538.933 377.368 538.805 377.696 538.549 377.952C538.293 378.208 537.965 378.336 537.565 378.336ZM543.91 378.336C543.51 378.336 543.182 378.208 542.926 377.952C542.67 377.696 542.542 377.368 542.542 376.968C542.542 376.568 542.67 376.24 542.926 375.984C543.182 375.728 543.51 375.6 543.91 375.6C544.31 375.6 544.638 375.728 544.894 375.984C545.15 376.24 545.278 376.568 545.278 376.968C545.278 377.368 545.15 377.696 544.894 377.952C544.638 378.208 544.31 378.336 543.91 378.336ZM550.255 378.336C549.855 378.336 549.527 378.208 549.271 377.952C549.015 377.696 548.887 377.368 548.887 376.968C548.887 376.568 549.015 376.24 549.271 375.984C549.527 375.728 549.855 375.6 550.255 375.6C550.655 375.6 550.983 375.728 551.239 375.984C551.495 376.24 551.623 376.568 551.623 376.968C551.623 377.368 551.495 377.696 551.239 377.952C550.983 378.208 550.655 378.336 550.255 378.336Z" fill="white"/>
<path d="M220.15 409.957L223.457 412.35L225.85 409.043L222.543 406.65L220.15 409.957ZM516.333 551.5C516.333 552.973 517.527 554.167 519 554.167C520.473 554.167 521.667 552.973 521.667 551.5C521.667 550.027 520.473 548.833 519 548.833C517.527 548.833 516.333 550.027 516.333 551.5ZM223.079 409.994C274.907 401.688 406.731 418.357 518.617 551.821L519.383 551.179C407.269 417.443 275.093 400.645 222.921 409.006L223.079 409.994Z" fill="white" fill-opacity="0.7"/>
<path d="M337.333 40C337.333 41.4727 338.527 42.6667 340 42.6667C341.473 42.6667 342.667 41.4727 342.667 40C342.667 38.5272 341.473 37.3333 340 37.3333C338.527 37.3333 337.333 38.5272 337.333 40ZM586.833 82.5C586.833 83.9727 588.027 85.1667 589.5 85.1667C590.973 85.1667 592.167 83.9727 592.167 82.5C592.167 81.0272 590.973 79.8333 589.5 79.8333C588.027 79.8333 586.833 81.0272 586.833 82.5ZM340.016 40.4997C374.831 39.417 429.08 40.2419 478.665 46.2339C503.458 49.23 527.07 53.5161 546.497 59.4951C565.945 65.4806 581.113 73.1374 589.115 82.8185L589.885 82.1814C581.687 72.2626 566.276 64.5361 546.791 58.5393C527.284 52.5359 503.608 48.2408 478.785 45.2411C429.137 39.2414 374.835 38.4163 339.984 39.5002L340.016 40.4997Z" fill="white" fill-opacity="0.7"/>
<circle cx="631" cy="105" r="70" fill="url(#paint6_linear_1_2)"/>
<circle cx="792.305" cy="178.305" r="147.716" transform="rotate(-113.455 792.305 178.305)" fill="url(#paint7_linear_1_2)"/>
<path d="M589.333 628.5C589.333 629.973 590.527 631.167 592 631.167C593.473 631.167 594.667 629.973 594.667 628.5C594.667 627.027 593.473 625.833 592 625.833C590.527 625.833 589.333 627.027 589.333 628.5ZM801.333 181C801.333 182.473 802.527 183.667 804 183.667C805.473 183.667 806.667 182.473 806.667 181C806.667 179.527 805.473 178.333 804 178.333C802.527 178.333 801.333 179.527 801.333 181ZM592.276 628.917C649.731 590.808 729.288 522.688 781.233 442.159C833.177 361.63 857.57 268.577 804.428 180.741L803.572 181.259C856.43 268.623 832.24 361.237 780.392 441.616C728.545 521.996 649.103 590.025 591.724 628.083L592.276 628.917Z" fill="white" fill-opacity="0.7"/>
<path d="M584.833 109C584.833 110.473 586.027 111.667 587.5 111.667C588.973 111.667 590.167 110.473 590.167 109C590.167 107.527 588.973 106.333 587.5 106.333C586.027 106.333 584.833 107.527 584.833 109ZM660.833 214C660.833 215.473 662.027 216.667 663.5 216.667C664.973 216.667 666.167 215.473 666.167 214C666.167 212.527 664.973 211.333 663.5 211.333C662.027 211.333 660.833 212.527 660.833 214ZM587.437 108.504C572.415 110.423 556.812 113.852 545.063 118.957C539.19 121.509 534.248 124.493 530.825 127.943C527.394 131.399 525.466 135.35 525.701 139.801C525.934 144.238 528.311 149.07 533.27 154.314C538.23 159.56 545.81 165.258 556.538 171.43C577.996 183.776 612.135 198.072 663.348 214.476L663.653 213.524C612.465 197.128 578.404 182.857 557.037 170.563C546.353 164.416 538.864 158.776 533.996 153.627C529.126 148.477 526.916 143.858 526.699 139.749C526.484 135.654 528.243 131.964 531.535 128.647C534.833 125.323 539.647 122.4 545.462 119.874C557.088 114.823 572.585 111.41 587.563 109.496L587.437 108.504Z" fill="white" fill-opacity="0.7"/>
</g>
<defs>
<linearGradient id="paint0_linear_1_2" x1="312.5" y1="328.5" x2="34.5" y2="746" gradientUnits="userSpaceOnUse">
<stop stop-color="#A80AE1"/>
<stop offset="1" stop-color="#126CCD"/>
</linearGradient>
<linearGradient id="paint1_linear_1_2" x1="196.619" y1="386.639" x2="256.021" y2="441.608" gradientUnits="userSpaceOnUse">
<stop stop-color="#B809A6"/>
<stop offset="1" stop-color="#372494"/>
</linearGradient>
<linearGradient id="paint2_linear_1_2" x1="495" y1="617" x2="647" y2="617" gradientUnits="userSpaceOnUse">
<stop stop-color="#9D12E0"/>
<stop offset="1" stop-color="#136DCE"/>
</linearGradient>
<linearGradient id="paint3_linear_1_2" x1="179.934" y1="59.7287" x2="198.538" y2="72.4339" gradientUnits="userSpaceOnUse">
<stop stop-color="white"/>
<stop offset="1"/>
</linearGradient>
<linearGradient id="paint4_linear_1_2" x1="74.6017" y1="109.996" x2="128.51" y2="159.881" gradientUnits="userSpaceOnUse">
<stop stop-color="#B809A6"/>
<stop offset="0.493871" stop-color="#561564"/>
<stop offset="0.879055" stop-color="#0F063C"/>
</linearGradient>
<linearGradient id="paint5_linear_1_2" x1="312.499" y1="22.2735" x2="351.397" y2="58.2692" gradientUnits="userSpaceOnUse">
<stop stop-color="#3EE0B9"/>
<stop offset="1" stop-color="#372494"/>
</linearGradient>
<linearGradient id="paint6_linear_1_2" x1="591.309" y1="52.3196" x2="688.01" y2="141.804" gradientUnits="userSpaceOnUse">
<stop stop-color="#3EE0B9"/>
<stop offset="1" stop-color="#372494"/>
</linearGradient>
<linearGradient id="paint7_linear_1_2" x1="664.068" y1="178.305" x2="910.803" y2="178.305" gradientUnits="userSpaceOnUse">
<stop stop-color="#9D12E0"/>
<stop offset="1" stop-color="#136DCE"/>
</linearGradient>
<clipPath id="clip0_1_2">
<rect width="874" height="768" fill="white"/>
</clipPath>
</defs>
</svg>
