<svg width="499" height="158" viewBox="0 0 499 158" fill="none" xmlns="http://www.w3.org/2000/svg">
<circle cx="13" cy="37" r="13" fill="url(#paint0_linear_303_23)"/>
<path d="M164 79C164 79.7298 163.99 80.4573 163.97 81.1824C128.722 115.036 84.4114 131.877 53.7674 137.791C73.4456 137.791 124.223 125.782 160.285 103.012C150.122 134.902 120.258 158 85 158C41.3695 158 6 122.63 6 79C6 35.3695 41.3695 0 85 0C117.557 0 145.514 19.6941 157.608 47.8189C120.791 98.1264 63.4226 121.423 26.2093 128.605C52.7019 128.605 135.564 106.838 162.993 66.3511C163.656 70.4696 164 74.6946 164 79Z" fill="url(#paint1_linear_303_23)"/>
<path d="M102.833 73.9999C102.833 75.4727 104.027 76.6666 105.5 76.6666C106.973 76.6666 108.167 75.4727 108.167 73.9999C108.167 72.5272 106.973 71.3333 105.5 71.3333C104.027 71.3333 102.833 72.5272 102.833 73.9999ZM142.833 120C142.833 121.473 144.027 122.667 145.5 122.667C146.973 122.667 148.167 121.473 148.167 120C148.167 118.527 146.973 117.333 145.5 117.333C144.027 117.333 142.833 118.527 142.833 120ZM105.651 74.4767C112.6 72.282 122.622 74.1723 132.811 78.3039C142.973 82.4248 153.182 88.7268 160.455 95.1985C164.093 98.4354 166.976 101.697 168.755 104.731C170.541 107.777 171.169 110.51 170.456 112.745C169.751 114.958 167.672 116.852 163.637 118.095C159.603 119.338 153.699 119.899 145.524 119.501L145.476 120.499C153.701 120.901 159.737 120.343 163.932 119.051C168.126 117.759 170.563 115.701 171.409 113.049C172.248 110.418 171.463 107.372 169.618 104.226C167.766 101.068 164.801 97.727 161.12 94.4514C153.755 87.8981 143.446 81.5377 133.186 77.3772C122.953 73.2276 112.65 71.2179 105.349 73.5231L105.651 74.4767Z" fill="white" fill-opacity="0.2"/>
<path d="M106 98.4639V44.0875H128.219C131.614 44.0875 134.597 44.7867 137.168 46.1849C139.791 47.5314 141.823 49.4475 143.263 51.9333C144.755 54.419 145.5 57.3709 145.5 60.7888V61.8764C145.5 65.2425 144.729 68.1944 143.186 70.732C141.694 73.2177 139.637 75.1597 137.014 76.558C134.442 77.9044 131.511 78.5777 128.219 78.5777H116.184V98.4639H106ZM116.184 69.256H127.216C129.633 69.256 131.588 68.5828 133.079 67.2363C134.571 65.8899 135.317 64.0514 135.317 61.721V60.9442C135.317 58.6138 134.571 56.7753 133.079 55.4289C131.588 54.0824 129.633 53.4092 127.216 53.4092H116.184V69.256Z" fill="white"/>
<path d="M155.184 98.4639V59.9344H164.75V64.2845H166.139C166.705 62.7309 167.631 61.5915 168.916 60.8665C170.254 60.1415 171.797 59.779 173.545 59.779H178.174V68.4792H173.391C170.922 68.4792 168.891 69.1524 167.296 70.4989C165.702 71.7936 164.905 73.8133 164.905 76.558V98.4639H155.184Z" fill="white"/>
<path d="M204.938 99.5514C201.132 99.5514 197.712 98.7746 194.677 97.221C191.642 95.6674 189.251 93.4147 187.502 90.4628C185.753 87.5109 184.879 83.9635 184.879 79.8206V78.5777C184.879 74.4347 185.753 70.8873 187.502 67.9355C189.251 64.9836 191.642 62.7309 194.677 61.1772C197.712 59.6236 201.132 58.8468 204.938 58.8468C208.744 58.8468 212.164 59.6236 215.199 61.1772C218.233 62.7309 220.625 64.9836 222.374 67.9355C224.122 70.8873 224.997 74.4347 224.997 78.5777V79.8206C224.997 83.9635 224.122 87.5109 222.374 90.4628C220.625 93.4147 218.233 95.6674 215.199 97.221C212.164 98.7746 208.744 99.5514 204.938 99.5514ZM204.938 90.8512C207.921 90.8512 210.39 89.8931 212.344 87.977C214.299 86.0091 215.276 83.2126 215.276 79.5875V78.8107C215.276 75.1856 214.299 72.415 212.344 70.4989C210.441 68.531 207.972 67.547 204.938 67.547C201.955 67.547 199.486 68.531 197.532 70.4989C195.577 72.415 194.6 75.1856 194.6 78.8107V79.5875C194.6 83.2126 195.577 86.0091 197.532 87.977C199.486 89.8931 201.955 90.8512 204.938 90.8512Z" fill="white"/>
<path d="M230.403 98.4639L244.29 79.0438L230.557 59.9344H241.821L250.539 72.7516H251.928L260.646 59.9344H271.909L258.177 79.0438L272.064 98.4639H260.646L251.928 85.4912H250.539L241.821 98.4639H230.403Z" fill="white"/>
<path d="M285.935 114V105.455H306.765C308.205 105.455 308.925 104.678 308.925 103.125V93.4147H307.537C307.125 94.295 306.482 95.1754 305.608 96.0558C304.734 96.9362 303.551 97.6612 302.059 98.2309C300.568 98.8005 298.665 99.0853 296.35 99.0853C293.367 99.0853 290.744 98.4121 288.481 97.0656C286.269 95.6674 284.546 93.7513 283.312 91.3173C282.077 88.8833 281.46 86.0868 281.46 82.9278V59.9344H291.181V82.151C291.181 85.0511 291.875 87.2261 293.264 88.6762C294.704 90.1262 296.736 90.8512 299.359 90.8512C302.342 90.8512 304.656 89.8673 306.302 87.8993C307.948 85.8797 308.771 83.0832 308.771 79.5098V59.9344H318.492V105.3C318.492 107.941 317.72 110.038 316.177 111.592C314.634 113.197 312.577 114 310.005 114H285.935Z" fill="white"/>
<path d="M331.315 98.4639V44.0875H350.216L359.552 91.4727H360.94L370.275 44.0875H389.177V98.4639H379.302V51.6225H377.913L368.655 98.4639H351.837L342.579 51.6225H341.19V98.4639H331.315Z" fill="white"/>
<path d="M401.971 98.4639V59.9344H411.692V98.4639H401.971ZM406.831 55.4289C405.083 55.4289 403.591 54.8592 402.357 53.7199C401.174 52.5806 400.582 51.0788 400.582 49.2144C400.582 47.3501 401.174 45.8483 402.357 44.709C403.591 43.5697 405.083 43 406.831 43C408.632 43 410.123 43.5697 411.306 44.709C412.489 45.8483 413.08 47.3501 413.08 49.2144C413.08 51.0788 412.489 52.5806 411.306 53.7199C410.123 54.8592 408.632 55.4289 406.831 55.4289Z" fill="white"/>
<path d="M439.437 98.4639C436.916 98.4639 434.859 97.6871 433.265 96.1335C431.722 94.5281 430.95 92.4048 430.95 89.7637V68.0131H421.384V59.9344H430.95V47.9716H440.671V59.9344H451.163V68.0131H440.671V88.0547C440.671 89.6083 441.391 90.3851 442.831 90.3851H450.237V98.4639H439.437Z" fill="white"/>
<path d="M466.443 114V105.455H487.273C488.713 105.455 489.434 104.678 489.434 103.125V93.4147H488.045C487.633 94.295 486.99 95.1754 486.116 96.0558C485.242 96.9362 484.059 97.6612 482.567 98.2309C481.076 98.8005 479.173 99.0853 476.858 99.0853C473.875 99.0853 471.252 98.4121 468.989 97.0656C466.777 95.6674 465.054 93.7513 463.82 91.3173C462.586 88.8833 461.968 86.0868 461.968 82.9278V59.9344H471.689V82.151C471.689 85.0511 472.384 87.2261 473.772 88.6762C475.212 90.1262 477.244 90.8512 479.867 90.8512C482.85 90.8512 485.165 89.8673 486.81 87.8993C488.456 85.8797 489.279 83.0832 489.279 79.5098V59.9344H499V105.3C499 107.941 498.229 110.038 496.686 111.592C495.143 113.197 493.085 114 490.514 114H466.443Z" fill="white"/>
<defs>
<linearGradient id="paint0_linear_303_23" x1="2.5" y1="30.5" x2="23" y2="44.5" gradientUnits="userSpaceOnUse">
<stop stop-color="white"/>
<stop offset="1"/>
</linearGradient>
<linearGradient id="paint1_linear_303_23" x1="24.6186" y1="82.6392" x2="84.0206" y2="137.608" gradientUnits="userSpaceOnUse">
<stop stop-color="#B809A6"/>
<stop offset="0.493871" stop-color="#561564"/>
<stop offset="0.879055" stop-color="#0F063C"/>
</linearGradient>
</defs>
</svg>
