<svg width="616" height="517" viewBox="0 0 616 517" fill="none" xmlns="http://www.w3.org/2000/svg">
<g opacity="0.4">
<path d="M430.188 70.2503C348.988 -43.3497 264.354 5.91693 232.188 44.7503C224 55.5 225.288 72.3503 197.688 80.7502C163.188 91.2502 62.1876 26.2502 11.6876 80.7502C-38.8124 135.25 95.1877 137.75 22.1877 261.75C-50.8123 385.75 79.6877 448.25 216.688 359.25C353.688 270.25 366.188 427.25 510.188 444.75C654.188 462.25 645.688 281.75 510.188 261.75C374.688 241.75 531.688 212.25 430.188 70.2503Z" fill="black" fill-opacity="0.08"/>
<circle cx="475.188" cy="289.75" r="111.5" fill="url(#paint0_linear_32_85)"/>
<circle cx="192.688" cy="149.25" r="52" fill="url(#paint1_linear_32_85)"/>
<path d="M194.854 123.75C194.854 126.696 197.242 129.084 200.188 129.084C203.133 129.084 205.521 126.696 205.521 123.75C205.521 120.805 203.133 118.417 200.188 118.417C197.242 118.417 194.854 120.805 194.854 123.75ZM502.354 210.75C502.354 213.696 504.742 216.084 507.688 216.084C510.633 216.084 513.021 213.696 513.021 210.75C513.021 207.805 510.633 205.417 507.688 205.417C504.742 205.417 502.354 207.805 502.354 210.75ZM200.395 124.728C228.549 118.749 315.192 110.006 389.831 117.995C427.17 121.991 461.346 130.159 483.701 144.836C494.862 152.163 503.023 161.076 507.201 171.854C511.375 182.622 511.618 195.365 506.736 210.442L508.639 211.058C513.633 195.636 513.438 182.41 509.065 171.131C504.697 159.861 496.202 150.65 484.799 143.164C462.03 128.216 427.456 120.01 390.044 116.006C315.183 107.994 228.327 116.751 199.98 122.772L200.395 124.728Z" fill="black" fill-opacity="0.29"/>
<path d="M142.688 163.75C121.354 173.75 93.0351 190.507 123.835 190.907C162.335 191.407 284.719 133.843 288.335 125.407C289.835 121.907 276.688 121.25 239.188 127.75" stroke="url(#paint2_linear_32_85)" stroke-width="6"/>
<circle cx="475.188" cy="289.75" r="111.5" fill="url(#paint3_linear_32_85)"/>
<circle cx="192.688" cy="149.25" r="52" fill="url(#paint4_linear_32_85)"/>
<path d="M194.854 123.75C194.854 126.696 197.242 129.084 200.188 129.084C203.133 129.084 205.521 126.696 205.521 123.75C205.521 120.805 203.133 118.417 200.188 118.417C197.242 118.417 194.854 120.805 194.854 123.75ZM502.354 210.75C502.354 213.696 504.742 216.084 507.688 216.084C510.633 216.084 513.021 213.696 513.021 210.75C513.021 207.805 510.633 205.417 507.688 205.417C504.742 205.417 502.354 207.805 502.354 210.75ZM200.395 124.728C228.549 118.749 315.192 110.006 389.831 117.995C427.17 121.991 461.346 130.159 483.701 144.836C494.862 152.163 503.023 161.076 507.201 171.854C511.375 182.622 511.618 195.365 506.736 210.442L508.639 211.058C513.633 195.636 513.438 182.41 509.065 171.131C504.697 159.861 496.202 150.65 484.799 143.164C462.03 128.216 427.456 120.01 390.044 116.006C315.183 107.994 228.327 116.751 199.98 122.772L200.395 124.728Z" fill="black" fill-opacity="0.29"/>
<path d="M142.688 163.75C121.354 173.75 93.0351 190.507 123.835 190.907C162.335 191.407 284.719 133.843 288.335 125.407C289.835 121.907 276.688 121.25 239.188 127.75" stroke="url(#paint5_linear_32_85)" stroke-width="6"/>
<path d="M346.09 115.618C346.09 111.2 342.989 109.409 339.162 111.618L113.928 241.657C110.102 243.866 107 249.239 107 253.657L107 349.315C107 353.733 110.102 355.524 113.928 353.315L351.886 215.93C357.348 212.776 360.662 203.906 357.738 200.268L347.167 187.118C346.464 186.243 346.09 184.973 346.09 183.456L346.09 115.618Z" fill="#136DCE"/>
<rect width="237.397" height="12.9667" rx="6" transform="matrix(-0.866025 0.5 2.20305e-08 1 329.669 131.506)" fill="#0F5FB6"/>
<rect width="183.546" height="12.9667" rx="6" transform="matrix(-0.866025 0.5 2.20305e-08 1 329.669 173.288)" fill="#0F5FB6"/>
<rect width="128.179" height="12.9667" rx="6" transform="matrix(-0.866025 0.5 2.20305e-08 1 329.669 194.179)" fill="#0F5FB6"/>
<rect width="159.276" height="12.9667" rx="6" transform="matrix(-0.866025 0.5 2.20305e-08 1 329.669 152.397)" fill="#0F5FB6"/>
<path d="M57.7857 405.812C57.7857 401.393 60.8876 396.021 64.7139 393.812L295.072 260.814C298.898 258.605 302 260.396 302 264.814L302 357.158C302 361.576 298.898 366.948 295.072 369.158L51.9532 509.522C46.4181 512.718 43.1179 507.498 46.1905 500.408L56.6202 476.341C57.3802 474.588 57.7857 472.808 57.7857 471.227L57.7857 405.812Z" fill="#B809A6"/>
<rect width="242.484" height="12.5818" rx="6" transform="matrix(0.866025 -0.5 2.20305e-08 1 74.5588 402.107)" fill="#9B068C"/>
<rect width="187.48" height="12.5818" rx="6" transform="matrix(0.866025 -0.5 2.20305e-08 1 74.5588 442.649)" fill="#9B068C"/>
<rect width="130.926" height="12.5818" rx="6" transform="matrix(0.866025 -0.5 2.20305e-08 1 74.5588 462.919)" fill="#9B068C"/>
<rect width="162.689" height="12.5818" rx="6" transform="matrix(0.866025 -0.5 2.20305e-08 1 74.5588 422.378)" fill="#9B068C"/>
</g>
<defs>
<linearGradient id="paint0_linear_32_85" x1="531.688" y1="208.25" x2="392.688" y2="375.75" gradientUnits="userSpaceOnUse">
<stop stop-color="#B809A6"/>
<stop offset="0.927997" stop-color="#372494"/>
</linearGradient>
<linearGradient id="paint1_linear_32_85" x1="151.188" y1="116.75" x2="215.688" y2="190.25" gradientUnits="userSpaceOnUse">
<stop stop-color="#3EE0B9"/>
<stop offset="1" stop-color="#136DCE"/>
</linearGradient>
<linearGradient id="paint2_linear_32_85" x1="199.355" y1="122.801" x2="199.355" y2="190.91" gradientUnits="userSpaceOnUse">
<stop stop-color="#312EE0"/>
<stop offset="1" stop-color="#E02E2E" stop-opacity="0.71"/>
</linearGradient>
<linearGradient id="paint3_linear_32_85" x1="531.688" y1="208.25" x2="392.688" y2="375.75" gradientUnits="userSpaceOnUse">
<stop stop-color="#B809A6"/>
<stop offset="0.927997" stop-color="#372494"/>
</linearGradient>
<linearGradient id="paint4_linear_32_85" x1="151.188" y1="116.75" x2="215.688" y2="190.25" gradientUnits="userSpaceOnUse">
<stop stop-color="#3EE0B9"/>
<stop offset="1" stop-color="#136DCE"/>
</linearGradient>
<linearGradient id="paint5_linear_32_85" x1="199.355" y1="122.801" x2="199.355" y2="190.91" gradientUnits="userSpaceOnUse">
<stop stop-color="#312EE0"/>
<stop offset="1" stop-color="#E02E2E" stop-opacity="0.71"/>
</linearGradient>
</defs>
</svg>
