<svg width="211" height="184" viewBox="0 0 211 184" fill="none" xmlns="http://www.w3.org/2000/svg">
<circle cx="168.784" cy="35.7839" r="13.7839" fill="url(#paint0_linear_5_72)"/>
<path d="M182.372 83.7638C182.372 84.5377 182.361 85.309 182.34 86.0778C144.967 121.972 97.9839 139.829 65.4921 146.1C86.3568 146.1 140.197 133.367 178.432 109.224C167.657 143.037 135.993 167.528 98.608 167.528C52.3465 167.528 14.8442 130.025 14.8442 83.7638C14.8442 37.5023 52.3465 0 98.608 0C133.128 0 162.771 20.8816 175.594 50.7024C136.557 104.044 75.7294 128.745 36.2721 136.36C64.3623 136.36 152.221 113.281 181.304 70.3522C182.007 74.719 182.372 79.1988 182.372 83.7638Z" fill="url(#paint1_linear_5_72)"/>
<path d="M117.678 78.4622C117.678 79.935 118.871 81.1289 120.344 81.1289C121.817 81.1289 123.011 79.935 123.011 78.4622C123.011 76.9895 121.817 75.7956 120.344 75.7956C118.871 75.7956 117.678 76.9895 117.678 78.4622ZM160.09 127.236C160.09 128.709 161.283 129.903 162.756 129.903C164.229 129.903 165.423 128.709 165.423 127.236C165.423 125.763 164.229 124.569 162.756 124.569C161.283 124.569 160.09 125.763 160.09 127.236ZM120.495 78.939C127.874 76.6087 138.508 78.6166 149.313 82.9979C160.091 87.3684 170.919 94.0522 178.633 100.917C182.492 104.35 185.551 107.811 187.44 111.032C189.335 114.264 190.006 117.172 189.246 119.553C188.494 121.913 186.279 123.926 181.996 125.245C177.714 126.565 171.45 127.16 162.781 126.737L162.732 127.736C171.451 128.161 177.848 127.57 182.291 126.201C186.733 124.832 189.307 122.655 190.199 119.857C191.085 117.079 190.257 113.859 188.302 110.526C186.341 107.182 183.2 103.641 179.298 100.17C171.492 93.2235 160.564 86.4813 149.689 82.0711C138.84 77.6718 127.923 75.5445 120.194 77.9855L120.495 78.939Z" fill="black" fill-opacity="0.2"/>
<path d="M0 175.08V145.846H11.9293C13.7518 145.846 15.3534 146.222 16.7341 146.974C18.1424 147.697 19.2332 148.728 20.0064 150.064C20.8072 151.4 21.2076 152.987 21.2076 154.825V155.41C21.2076 157.219 20.7934 158.806 19.965 160.17C19.1642 161.507 18.0596 162.551 16.6513 163.303C15.2706 164.027 13.6966 164.388 11.9293 164.388H5.46758V175.08H0ZM5.46758 159.377H11.3908C12.6887 159.377 13.738 159.015 14.5388 158.291C15.3396 157.567 15.74 156.579 15.74 155.326V154.908C15.74 153.656 15.3396 152.667 14.5388 151.943C13.738 151.219 12.6887 150.857 11.3908 150.857H5.46758V159.377Z" fill="black"/>
<path d="M26.4066 175.08V154.365H31.5428V156.704H32.2884C32.5921 155.869 33.0892 155.256 33.7795 154.867C34.4975 154.477 35.3259 154.282 36.2648 154.282H38.7501V158.959H36.182C34.8565 158.959 33.7657 159.321 32.9097 160.045C32.0537 160.741 31.6257 161.827 31.6257 163.303V175.08H26.4066Z" fill="black"/>
<path d="M53.1193 175.664C51.0759 175.664 49.2395 175.247 47.6103 174.411C45.9811 173.576 44.697 172.365 43.7581 170.778C42.8193 169.191 42.3498 167.284 42.3498 165.057V164.388C42.3498 162.161 42.8193 160.254 43.7581 158.667C44.697 157.08 45.9811 155.869 47.6103 155.034C49.2395 154.198 51.0759 153.781 53.1193 153.781C55.1628 153.781 56.9991 154.198 58.6283 155.034C60.2576 155.869 61.5416 157.08 62.4805 158.667C63.4194 160.254 63.8888 162.161 63.8888 164.388V165.057C63.8888 167.284 63.4194 169.191 62.4805 170.778C61.5416 172.365 60.2576 173.576 58.6283 174.411C56.9991 175.247 55.1628 175.664 53.1193 175.664ZM53.1193 170.987C54.7209 170.987 56.0464 170.472 57.0957 169.442C58.1451 168.384 58.6697 166.88 58.6697 164.931V164.514C58.6697 162.565 58.1451 161.075 57.0957 160.045C56.074 158.987 54.7485 158.458 53.1193 158.458C51.5177 158.458 50.1922 158.987 49.1429 160.045C48.0936 161.075 47.5689 162.565 47.5689 164.514V164.931C47.5689 166.88 48.0936 168.384 49.1429 169.442C50.1922 170.472 51.5177 170.987 53.1193 170.987Z" fill="black"/>
<path d="M66.7915 175.08L74.2473 164.639L66.8744 154.365H72.9218L77.6024 161.256H78.348L83.0286 154.365H89.0761L81.7031 164.639L89.1589 175.08H83.0286L78.348 168.105H77.6024L72.9218 175.08H66.7915Z" fill="black"/>
<path d="M96.6063 183.432V178.838H107.79C108.563 178.838 108.95 178.421 108.95 177.585V172.365H108.204C107.983 172.838 107.638 173.312 107.169 173.785C106.699 174.258 106.064 174.648 105.263 174.954C104.462 175.261 103.441 175.414 102.198 175.414C100.597 175.414 99.1882 175.052 97.9732 174.328C96.7858 173.576 95.8607 172.546 95.198 171.238C94.5352 169.929 94.2039 168.426 94.2039 166.727V154.365H99.4229V166.31C99.4229 167.869 99.7957 169.038 100.541 169.818C101.314 170.597 102.405 170.987 103.814 170.987C105.415 170.987 106.658 170.458 107.541 169.4C108.425 168.314 108.867 166.811 108.867 164.89V154.365H114.086V178.755C114.086 180.175 113.672 181.302 112.843 182.138C112.015 183.001 110.91 183.432 109.53 183.432H96.6063Z" fill="black"/>
<path d="M120.971 175.08V145.846H131.119L136.131 171.321H136.876L141.888 145.846H152.036V175.08H146.735V149.897H145.989L141.018 175.08H131.989L127.018 149.897H126.273V175.08H120.971Z" fill="black"/>
<path d="M158.906 175.08V154.365H164.125V175.08H158.906ZM161.515 151.943C160.576 151.943 159.775 151.637 159.113 151.025C158.478 150.412 158.16 149.605 158.16 148.602C158.16 147.6 158.478 146.793 159.113 146.18C159.775 145.568 160.576 145.261 161.515 145.261C162.482 145.261 163.282 145.568 163.917 146.18C164.553 146.793 164.87 147.6 164.87 148.602C164.87 149.605 164.553 150.412 163.917 151.025C163.282 151.637 162.482 151.943 161.515 151.943Z" fill="black"/>
<path d="M179.021 175.08C177.668 175.08 176.563 174.662 175.707 173.827C174.879 172.964 174.464 171.822 174.464 170.402V158.709H169.328V154.365H174.464V147.934H179.683V154.365H185.317V158.709H179.683V169.483C179.683 170.319 180.07 170.736 180.843 170.736H184.82V175.08H179.021Z" fill="black"/>
<path d="M193.52 183.432V178.838H204.704C205.477 178.838 205.864 178.421 205.864 177.585V172.365H205.118C204.897 172.838 204.552 173.312 204.083 173.785C203.613 174.258 202.978 174.648 202.177 174.954C201.377 175.261 200.355 175.414 199.112 175.414C197.511 175.414 196.102 175.052 194.887 174.328C193.7 173.576 192.775 172.546 192.112 171.238C191.449 169.929 191.118 168.426 191.118 166.727V154.365H196.337V166.31C196.337 167.869 196.71 169.038 197.455 169.818C198.229 170.597 199.319 170.987 200.728 170.987C202.329 170.987 203.572 170.458 204.455 169.4C205.339 168.314 205.781 166.811 205.781 164.89V154.365H211V178.755C211 180.175 210.586 181.302 209.757 182.138C208.929 183.001 207.824 183.432 206.444 183.432H193.52Z" fill="black"/>
<defs>
<linearGradient id="paint0_linear_5_72" x1="157.651" y1="28.892" x2="179.387" y2="43.7362" gradientUnits="userSpaceOnUse">
<stop stop-color="black"/>
<stop offset="1"/>
</linearGradient>
<linearGradient id="paint1_linear_5_72" x1="34.5855" y1="87.6224" x2="97.5695" y2="145.906" gradientUnits="userSpaceOnUse">
<stop stop-color="#B809A6"/>
<stop offset="0.493871" stop-color="#561564"/>
<stop offset="0.879055" stop-color="#0F063C"/>
</linearGradient>
</defs>
</svg>
