<svg width="616" height="509" viewBox="0 0 616 509" fill="none" xmlns="http://www.w3.org/2000/svg">
<g opacity="0.4">
<path d="M430.188 70.2503C348.988 -43.3497 264.354 5.91693 232.188 44.7503C224 55.5 225.288 72.3503 197.688 80.7502C163.188 91.2502 62.1876 26.2502 11.6876 80.7502C-38.8124 135.25 95.1877 137.75 22.1877 261.75C-50.8123 385.75 79.6877 448.25 216.688 359.25C353.688 270.25 366.188 427.25 510.188 444.75C654.188 462.25 645.688 281.75 510.188 261.75C374.688 241.75 531.688 212.25 430.188 70.2503Z" fill="black" fill-opacity="0.08"/>
<circle cx="475.188" cy="289.75" r="111.5" fill="url(#paint0_linear_32_109)"/>
<circle cx="192.688" cy="149.25" r="52" fill="url(#paint1_linear_32_109)"/>
<path d="M194.854 123.75C194.854 126.696 197.242 129.084 200.188 129.084C203.133 129.084 205.521 126.696 205.521 123.75C205.521 120.805 203.133 118.417 200.188 118.417C197.242 118.417 194.854 120.805 194.854 123.75ZM502.354 210.75C502.354 213.696 504.742 216.084 507.688 216.084C510.633 216.084 513.021 213.696 513.021 210.75C513.021 207.805 510.633 205.417 507.688 205.417C504.742 205.417 502.354 207.805 502.354 210.75ZM200.395 124.728C228.549 118.749 315.192 110.006 389.831 117.995C427.17 121.991 461.346 130.159 483.701 144.836C494.862 152.163 503.023 161.076 507.201 171.854C511.375 182.622 511.618 195.365 506.736 210.442L508.639 211.058C513.633 195.636 513.438 182.41 509.065 171.131C504.697 159.861 496.202 150.65 484.799 143.164C462.03 128.216 427.456 120.01 390.044 116.006C315.183 107.994 228.327 116.751 199.98 122.772L200.395 124.728Z" fill="black" fill-opacity="0.29"/>
<path d="M142.688 163.75C121.354 173.75 93.0351 190.507 123.835 190.907C162.335 191.407 284.719 133.843 288.335 125.407C289.835 121.907 276.688 121.25 239.188 127.75" stroke="url(#paint2_linear_32_109)" stroke-width="6"/>
<path d="M289.736 193.998C290.346 231.274 265.248 276.832 233.679 295.755C202.109 314.677 176.022 299.798 175.412 262.522C174.802 225.246 199.899 179.688 231.469 160.765C263.038 141.843 289.125 156.722 289.736 193.998Z" fill="#573CDD"/>
<path d="M326.672 340.203C327.636 399.075 286.862 419.295 236.649 449.392C186.436 479.49 145.798 508.066 144.835 449.195C143.871 390.323 183.795 318.2 234.008 288.103C284.221 258.006 325.708 281.332 326.672 340.203Z" fill="#573CDD"/>
<path d="M301.736 198.998C302.346 236.274 277.248 281.832 245.679 300.755C214.109 319.677 188.022 304.798 187.412 267.522C186.802 230.246 211.899 184.688 243.469 165.765C275.038 146.843 301.125 161.722 301.736 198.998Z" fill="#136DCE"/>
<path d="M338.672 345.203C339.636 404.075 298.862 424.295 248.649 454.392C198.436 484.49 157.798 513.066 156.835 454.195C155.871 395.323 195.795 323.2 246.008 293.103C296.221 263.006 337.708 286.332 338.672 345.203Z" fill="#136DCE"/>
<rect width="13" height="142" rx="6" transform="matrix(0.866025 -0.5 2.20305e-08 1 137.292 200.5)" fill="#88037A"/>
<rect width="13" height="142" rx="6" transform="matrix(-1.58247e-08 1 -0.866025 0.5 203.976 228)" fill="#88037A"/>
<rect width="13" height="142" rx="6" transform="matrix(0.866025 -0.5 2.20305e-08 1 142.292 205.5)" fill="#B809A6"/>
<rect width="13" height="142" rx="6" transform="matrix(-1.58247e-08 1 -0.866025 0.5 208.976 233)" fill="#B809A6"/>
</g>
<defs>
<linearGradient id="paint0_linear_32_109" x1="531.688" y1="208.25" x2="392.688" y2="375.75" gradientUnits="userSpaceOnUse">
<stop stop-color="#B809A6"/>
<stop offset="0.927997" stop-color="#372494"/>
</linearGradient>
<linearGradient id="paint1_linear_32_109" x1="151.188" y1="116.75" x2="215.688" y2="190.25" gradientUnits="userSpaceOnUse">
<stop stop-color="#3EE0B9"/>
<stop offset="1" stop-color="#136DCE"/>
</linearGradient>
<linearGradient id="paint2_linear_32_109" x1="199.355" y1="122.801" x2="199.355" y2="190.91" gradientUnits="userSpaceOnUse">
<stop stop-color="#312EE0"/>
<stop offset="1" stop-color="#E02E2E" stop-opacity="0.71"/>
</linearGradient>
</defs>
</svg>
